<?xml version="1.0" standalone="no"?>
<!DOCTYPE svg PUBLIC "-//W3C//DTD SVG 1.1//EN" "http://www.w3.org/Graphics/SVG/1.1/DTD/svg11.dtd" >
<svg xmlns="http://www.w3.org/2000/svg">
<metadata>
This is a custom SVG webfont generated by Font Squirrel.
Copyright   : Copyright c Typographer Mediengestaltung 2000 All rights reserved
</metadata>
<defs>
<font id="webfont2k8JPHkD" horiz-adv-x="1576" >
<font-face units-per-em="2048" ascent="1638" descent="-410" />
<missing-glyph horiz-adv-x="1064" />
<glyph unicode=" "  horiz-adv-x="1064" />
<glyph unicode="&#x09;" horiz-adv-x="1064" />
<glyph unicode="&#xa0;" horiz-adv-x="1064" />
<glyph unicode="!" horiz-adv-x="784" d="M688 743q-43 37 -63 97q-14 39 -29 121q-61 137 -242 137q-172 0 -235 -131q-10 -25 -33 -125q-16 -72 -57 -99q106 -47 139 -184q20 -78 22 -213h336q-18 303 162 397zM526 -4v276h-336v-276h336z" />
<glyph unicode="&#x22;" horiz-adv-x="700" d="M571 1065h-239l47 -479h139zM279 1065h-240l47 -479h141z" />
<glyph unicode="#" horiz-adv-x="866" d="M772 891h-135l39 174h-162l-39 -174h-80l33 174h-154l-27 -102l-18 -72h-131l-26 -129h131v-31q0 -27 -19 -41h-131l-33 -131h144l-39 -182h160q4 39 8 64.5t6 39.5q12 78 66 78q27 0 38 -4l-38 -184h159l47 188h123l27 129h-123v31q10 29 18 41h123zM449 760 q-4 -23 -8.5 -41.5t-6.5 -28.5h-82l12 40l9 30h76z" />
<glyph unicode="$" horiz-adv-x="1261" d="M1157 358q0 111 -61 170q-47 43 -152 74l-120 32q-50 13 -84.5 23.5t-73.5 77.5q-47 -59 -127 -59q-45 0 -84 22q-45 27 -45 72q0 100 165 100q219 0 271 -174h264v342h-231q2 -33 -5 -43q-123 51 -186 64v233h-192v-221q-178 -4 -308 -104q-137 -111 -137 -285 q0 -182 166 -264q31 -14 102 -31q74 -16 105 -31q55 -27 86 -84q57 53 133 54q137 0 137 -78q0 -86 -178 -86q-104 0 -180 37q-100 45 -105 139h-251v-338h239q0 47 4 51q14 -10 35 -19t49 -20l45 -13q25 -7 58 -15v-248h192v241q190 0 324 91q145 108 145 290z" />
<glyph unicode="%" horiz-adv-x="1667" d="M1219 -31q244 0 309 152q53 125 71 141q-33 25 -45 51q-25 117 -124 179q-90 55 -218 55q-199 0 -280 -113q-18 -25 -41 -102q-18 -59 -45 -68q39 -23 53 -80q25 -86 39 -104q80 -111 281 -111zM1333 256q0 -51 -22 -92q-25 -53 -72 -53q-59 -4 -94 43q-33 39 -33 100 q0 55 29.5 95t83.5 40q108 0 108 -133zM1157 1098h-153l-541 -1127h160zM774 819q-37 33 -39 43q-80 236 -348 236q-162 0 -260 -86q-12 -8 -47 -90q-31 -76 -60 -99q29 -23 60 -104q29 -80 47 -101q86 -92 266 -92q150 0 232 61.5t129 205.5zM508 813q0 -49 -29 -94 q-35 -49 -82 -49q-51 0 -80.5 43t-29.5 96q0 133 112 133q109 0 109 -129z" />
<glyph unicode="&#x26;" horiz-adv-x="1445" d="M1397 338v201h-494q45 -72 45 -150q0 -104 -62.5 -165.5t-166.5 -61.5q-166 0 -166 143q0 160 192 152v192q-193 -8 -192 131q0 123 145 123q182 0 168 -180h330v354h-299q2 -29 -4 -43q-119 63 -305 64q-182 0 -277 -43q-139 -63 -252 -267q14 -12 28.5 -32.5 t29.5 -48.5q31 -55 49 -74q72 -74 192 -90q-106 -2 -192 -74q-37 -31 -146 -168q45 -41 56 -65q78 -174 266 -232q121 -35 340 -35q231 0 340 43q201 84 213 326h162z" />
<glyph unicode="'" horiz-adv-x="395" d="M266 1065h-239l27 -279l18 -200h141z" />
<glyph unicode="(" horiz-adv-x="757" d="M668 -328v166q-43 -31 -86 -31q-119 0 -152 142q-14 55 -14 184q0 53 1 85t3 42q14 78 100 107q-80 31 -98 110q-6 27 -6 176v13q-2 8 -2 22v49q0 205 149 205q66 0 105 -39v162q-57 33 -152 33q-125 0 -225 -84q-90 -78 -133 -207q-29 -90 -43 -246q-8 -106 -27 -141 q-23 -41 -68 -53q29 -12 64 -54q37 -41 37 -69q4 -246 76 -400q102 -207 319 -206q66 -1 152 34z" />
<glyph unicode=")" horiz-adv-x="729" d="M670 369q-10 0 -22.5 7t-25 18.5t-20.5 22.5t-8 21q-35 293 -80 410q-102 250 -338 250q-82 0 -156 -33v-162q14 10 51.5 24.5t57.5 14.5q113 0 139 -113q4 -20 7.5 -63t3.5 -113q0 -131 -7 -164q-14 -84 -94 -122q78 -29 94 -101q6 -29 7 -127q0 -332 -168 -332h-35 q-16 2 -56 31v-166q94 -35 152 -34q143 0 246 96q92 92 125 237q27 104 26 168q5 185 101 230z" />
<glyph unicode="*" horiz-adv-x="708" d="M604 782l-65 205q-53 -16 -90 -65l-58 -69q-23 -28 -33 -38q27 -4 111 -24l80 -23q26 0 55 14zM434 1030v35h-219v-35l107 -192q8 16 25 45l44 69q45 70 43 78zM559 659q-31 41 -113 74q-90 37 -100 47l4 -172q8 -33 37 -82l100 78zM287 815l-90 109q-45 51 -84 71 l-68 -213q35 -10 55 -8zM305 772q-2 0 -125 -41q-72 -25 -102 -72l180 -133q39 70 39 158v23q0 42 8 65z" />
<glyph unicode="+" horiz-adv-x="995" d="M975 299v254h-338v336h-246v-336h-338v-254h336v-328h248v328h338z" />
<glyph unicode="," horiz-adv-x="565" d="M422 68q0 51 -29 118q-41 86 -104 86h-217v-276h172q25 0 78 49q4 -4 4 -14q0 -45 -47 -99q-45 -51 -97 -69q4 -16 12.5 -37t22.5 -45q94 35 149.5 112t55.5 175z" />
<glyph unicode="-" horiz-adv-x="665" d="M623 229v283h-557v-283h557z" />
<glyph unicode="." horiz-adv-x="567" d="M428 -4v276h-336v-276h336z" />
<glyph unicode="/" horiz-adv-x="743" d="M727 1208h-160l-637 -1374h154z" />
<glyph unicode="0" d="M1528 543q-20 14 -53 57q-31 39 -37 68q-115 430 -654 430q-430 0 -579 -248q-14 -20 -55 -162q-31 -102 -101 -145q29 -16 45.5 -28.5t20.5 -18.5q33 -49 39 -97q20 -158 153 -282q137 -125 295 -133l109 -9l82 -6q279 0 436 103q172 117 235 372q39 70 64 99zM995 367 q0 -205 -192 -205q-94 0 -149.5 58.5t-55.5 152.5q0 49 20 96q25 59 64 74q-57 43 -70 82q-8 16 -8 73q0 193 189 193q197 0 196 -186q0 -106 -78 -162q84 -35 84 -176z" />
<glyph unicode="1" d="M1221 0v174h-134q-49 0 -59 72q-2 10 -2 96v14q0 10 -2 21v33q0 90 80 137q-14 6 -47 39q-31 33 -31 47v432h-655v-174q145 10 186 -35q33 -33 33 -137q0 -14 2 -25v-24q0 -76 -80 -127q61 -31 74 -82q2 -10 3 -39t1 -80l2 -20q2 -10 2 -21v-16q0 -111 -66 -111h-172 v-174h865z" />
<glyph unicode="2" d="M1374 725q-55 33 -71 92q-66 281 -535 281q-199 0 -342 -56q-221 -86 -221 -286v-66h393q0 195 141 195q133 0 133 -121q0 -119 -174 -182l-196 -71l-125 -46q-172 -90 -172 -248v-209h1128v309h-309q2 -6 2 -20q0 -35 -28.5 -62.5t-63.5 -27.5h-373v22q25 51 31 56 q74 45 354 98q242 45 334 137q14 14 45 101q31 88 49 104z" />
<glyph unicode="3" d="M1413 784q-47 35 -65 66q-147 248 -588 248q-180 0 -336 -49q-252 -80 -252 -261v-110h414q-10 213 157 213q135 0 136 -150q0 -78 -35 -108.5t-115 -30.5h-24q-12 0 -27 2v-168q47 2 81 -2t56 -12q72 -29 72 -111q0 -141 -158 -141q-88 0 -127 74q-33 55 -29 151h-409 v-53q0 -219 235 -313q154 -59 357 -60q78 0 153.5 9.5t151.5 25.5q186 45 252 133q16 25 53 96q39 76 39 95q0 16 -57 86q-49 61 -74 84q-16 16 -68 26q-68 12 -86 19q86 8 164 84q43 40 129 157z" />
<glyph unicode="4" d="M1432 0v174h-132q-57 0 -57 80q0 35 6 45h183v190h-195v54q0 29 59 71q-53 35 -53 58v393h-569l-529 -600v-166h664v-80q0 -10 -22.5 -26.5t-34.5 -18.5h-138v-174h818zM813 831q-2 -29 -2 -57v-55q-10 -72 -61 -105q57 -33 57 -63v-62h-297z" />
<glyph unicode="5" d="M1393 381q-106 193 -242 281q-139 92 -352 92q-199 0 -299 -60v158h434q59 0 76 -78h311v291h-1110v-608h356q0 43 56 65q45 16 94 17q176 0 176 -179q0 -199 -166 -198q-68 0 -107.5 44t-39.5 111h-396v-22q16 -182 205 -266q141 -59 350 -60q225 0 367 66 q195 96 287 346z" />
<glyph unicode="6" d="M1454 387q-43 27 -55 66q-49 141 -211 211q-127 57 -301 57q-145 0 -228 -45l-4 82q18 72 56.5 99.5t113.5 27.5q66 0 95 -19q43 -29 43 -110h407q-23 342 -555 342q-197 0 -307 -37q-172 -57 -242 -211l-27 -100l-18 -64q-29 -98 -98 -129q51 -41 61 -80 q115 -508 631 -508q489 0 596 353q10 34 43 65zM1020 350q0 -168 -193 -168q-184 0 -184 166q0 78 59 125q53 41 136 41q80 0 131 -43t51 -121z" />
<glyph unicode="7" d="M1364 809v256h-1149v-381h322q-10 127 73 158q31 10 152 10q47 0 77.5 -1t43.5 -3q-80 -115 -129 -178q-78 -106 -176 -125q10 -27 10 -53q0 -45 -94 -228q-92 -184 -93 -241v-23h623v180q-59 -4 -82 25q12 74 92 180q92 125 180 150q-12 20 -12 47q0 71 162 227z" />
<glyph unicode="8" d="M1436 315l-152 189q-39 20 -70.5 33.5t-58.5 17.5q82 18 148 94l73 82q27 29 33 33q-63 31 -84 74q-78 141 -266 209q-141 51 -303 51q-205 0 -340 -68q-150 -70 -248 -239q131 -221 272 -236q-90 2 -174 -78q-27 -27 -125 -155q51 -98 116 -168t146 -111 q147 -74 379 -74q229 0 381 74q160 82 273 272zM928 752q0 -53 -54 -88q-45 -27 -104 -27q-160 0 -160 117t152 116q61 0 108 -28q58 -33 58 -90zM954 309q0 -66 -61 -102q-53 -31 -121 -31q-66 0 -117 29q-59 37 -59 98q0 66 57 105q53 35 119 34q68 0 119 -32 q63 -40 63 -101z" />
<glyph unicode="9" d="M1485 543q-53 37 -64 92q-39 238 -227 358q-166 104 -422 105q-197 0 -358 -68q-215 -88 -264 -278q-29 -43 -58 -66q43 -37 51 -65q92 -309 512 -310q207 0 297 54l6 -82q-33 -113 -182 -113q-160 0 -160 86q0 14 2 23h-473q47 -172 250 -252q147 -57 367 -58 q260 0 430 90q207 113 229 353q3 47 64 131zM950 709q0 -76 -63 -115q-53 -35 -131 -35q-72 0 -123 37q-59 41 -60 106q0 162 193 162q76 0 127 -39q57 -44 57 -116z" />
<glyph unicode=":" horiz-adv-x="544" d="M422 502v276h-336v-276h336zM422 -4v276h-336v-276h336z" />
<glyph unicode=";" horiz-adv-x="538" d="M416 502v276h-336v-276h336zM422 68q0 61 -29 122q-39 82 -104 82h-203v-276h158q25 0 78 43l4 -39q-18 -39 -60 -84q-49 -49 -84 -45l41 -90q92 35 145.5 112t53.5 175z" />
<glyph unicode="&#x3c;" horiz-adv-x="1398" d="M1319 860l-107 232l-1146 -543l1155 -549l98 231l-662 312z" />
<glyph unicode="=" horiz-adv-x="1048" d="M975 684v252h-928v-252h928zM975 182v252h-928v-252h928z" />
<glyph unicode="&#x3e;" horiz-adv-x="1318" d="M1319 549l-1147 543l-106 -232l661 -311l-661 -318l98 -231z" />
<glyph unicode="?" horiz-adv-x="1153" d="M1098 713q-12 2 -39 32q-25 31 -25 46q8 174 -198 253q-141 53 -328 54q-143 0 -275 -43q-207 -68 -206 -221v-105h368q-2 10 -2 31q0 125 127 125q63 0 84 -28t21 -93q0 -117 -101 -150l-53 -8q-59 -8 -93 -13t-42 -7q-94 -25 -94 -90v-158h336v59q0 47 79 64 q29 4 57.5 6t57.5 6q117 14 170 62l87 98zM578 -4v276h-336v-276h336z" />
<glyph unicode="@" horiz-adv-x="1857" d="M1749 631q0 328 -250 506q-207 150 -514 149q-395 0 -653 -233q-266 -242 -266 -633q0 -350 243 -557q229 -199 588 -199q365 0 637 211l-59 86q-25 35 -35 57q-250 -166 -527 -165q-285 0 -458 141q-188 152 -189 428q0 301 207 491q203 184 506 185q236 0 387 -152 q150 -150 150 -391q0 -70 -25 -145q-37 -117 -111 -117q-25 0 -28 16v49q0 84 53 113q-53 53 -53 72v143q0 80 -152 127q-104 33 -186 33q-174 0 -289 -72q-6 10 -4 37h-225v-205h231q12 43 68 64q45 18 96 18q129 0 129 -80q0 -27 -4 -30h-187q-285 0 -419 -232 q27 -8 36 -39q82 -217 330 -217q78 0 158 29q6 2 51 31q41 27 49 26q-27 0 101 -43q125 -43 190 -43q217 0 332 184q92 150 92 357zM1026 281q-39 -20 -102 -21q-137 0 -138 82q0 80 144 80h96v-141z" />
<glyph unicode="A" horiz-adv-x="1660" d="M1579 0v174q-94 0 -121 8q-29 10 -78 127q-47 111 -47 152q0 55 29 84q-76 2 -143 129q-51 94 -68 194q33 20 78 25h26q20 0 50 -2v174h-1006v-174h119q29 0 63 -25q0 -68 -61 -180q-72 -135 -154 -143q33 -25 33 -62q0 -35 -45 -137q-16 -41 -31.5 -69.5t-27.5 -45.5 q-44 -57 -101 -57h-4q-25 2 -43 2h-27v-174h629v174h-94q-74 0 -74 59q0 25 25 72h412q25 -35 24 -65q0 -51 -53 -64q-10 -2 -29.5 -3t-52.5 1v-174h772zM844 502h-252l127 272z" />
<glyph unicode="B" horiz-adv-x="1609" d="M1501 289q-84 117 -135 160q-90 76 -216 75h-13q4 2 30.5 5t73.5 12q66 8 100 30q33 20 80 103q49 78 68 88q-88 164 -154 225q-88 78 -221 78h-1081v-174h145q80 0 80 -84q0 -12 -2 -34.5t-2 -35.5q0 -82 -6 -108q-16 -66 -72 -80q57 -25 72 -94q6 -29 6 -113l2 -20v-37 q0 -111 -66 -111h-157v-174h1132q59 0 138 41q78 43 112 92q16 27 43 107q8 31 43 49zM987 758q0 -49 -32.5 -88t-82.5 -39h-182v246h170q47 0 87 -36t40 -83zM987 303q0 -55 -36 -91t-91 -36h-170v252h182q45 0 80 -40t35 -85z" />
<glyph unicode="C" horiz-adv-x="1417" d="M1339 379v29h-409q-4 -119 -35 -168q-43 -70 -147 -70q-182 0 -183 201q0 117 72 172q-72 49 -72 145q0 86 43 141.5t129 55.5q174 0 174 -248h369v428h-311q0 -43 -4 -51q-150 84 -306 84q-164 0 -288 -62q-145 -72 -193 -213l-27 -86l-18 -55q-31 -94 -94 -139 q63 -35 96 -150q45 -164 68 -196q88 -147 352 -213q55 -14 164 -15q213 0 377 68q243 104 243 342z" />
<glyph unicode="D" horiz-adv-x="1581" d="M1522 543q-57 41 -64 71q-104 451 -371 451h-1054v-174h145q80 0 80 -90q0 -10 -2 -33t-2 -33q0 -45 -1 -71.5t-3 -36.5q-12 -53 -74 -84q59 -31 72 -82q6 -25 6 -119l2 -20v-37q0 -111 -66 -111h-157v-174h1061q88 0 182 63q82 57 117 148q10 47 22 92l25 92 q27 99 82 148zM1001 367q0 -72 -28 -125q-35 -66 -101 -66h-182v275q0 14 24.5 49t39.5 43q-63 45 -64 92v256h170q68 0 109 -62q33 -51 32 -127q0 -119 -83 -159q55 -41 73 -88q10 -31 10 -88z" />
<glyph unicode="E" horiz-adv-x="1413" d="M1292 645v420h-1259v-174h26q128 0 160 -37q20 -20 21 -129q0 -80 -4 -100q-14 -55 -76 -82q66 -25 78 -90q2 -6 2 -111v-90q-10 -78 -62 -78h-145v-174h1253v416h-297q2 -25 2 -41v-19q0 -182 -110 -182h-205v250h239v203h-239v258h139q33 0 88 -23q72 -31 72 -74v-143 h317z" />
<glyph unicode="F" horiz-adv-x="1366" d="M1292 645v420h-1259v-174h26q128 0 160 -37q20 -20 21 -129q0 -80 -4 -100q-14 -55 -76 -82q66 -25 78 -90q2 -6 2 -111v-90q-10 -78 -62 -78h-145v-174h889v174h-164q-23 0 -52.5 17.5t-29.5 37.5v195h246v203h-246v264h151q109 0 142 -76q16 -35 15 -116q0 -25 -1 -54 h309z" />
<glyph unicode="G" horiz-adv-x="1488" d="M1456 379v172h-668v-174q10 2 20.5 3t20.5 1q94 0 95 -72q0 -139 -166 -139q-92 0 -139.5 57.5t-47.5 149.5q0 106 72 172q-66 29 -65 143q0 199 192 199q203 0 207 -234h336v408h-285q2 -31 -4 -45q-115 78 -328 78q-465 0 -542 -367q-29 -133 -115 -182 q68 -47 108 -187q43 -158 82 -204q152 -188 467 -189q141 0 308 76q37 -23 45 -55h270v340q0 39 59 49h78z" />
<glyph unicode="H" horiz-adv-x="1654" d="M1552 891v174h-700v-174q12 4 18 4q20 0 43 -8q41 -16 41 -39v-203h-331v184q0 62 98 62h6v174h-694v-174q19 1 35 1q93 0 112 -30q8 -10 8 -125q0 -94 -2 -100q-16 -74 -75 -88q80 -41 79 -137v-35q-2 -10 -2 -21v-12q0 -100 -4 -121q-18 -51 -102 -51h-23q-12 0 -26 2 v-174h694v174q-104 0 -104 55v205h331v-209q0 -51 -102 -51v-174h700v174q-35 -6 -61 -6q-82 0 -96 55q-4 20 -4 111q0 90 6 119q14 63 71 96q-61 27 -73 94q-2 8 -3 30.5t-1 63.5q0 90 6 107q14 51 98 51q14 0 27.5 -1t29.5 -3z" />
<glyph unicode="I" horiz-adv-x="968" d="M856 0v174h-131q-49 0 -59 72q-2 10 -2 96q0 100 2 107q12 68 75 98q-80 39 -79 131v31q2 10 2 16v10q-2 16 -3.5 29.5t-1.5 23.5q0 102 66 103h131v174h-815v-174q16 2 32.5 3t30.5 1q98 0 117 -43q6 -16 6 -115q0 -100 -2 -106q-12 -57 -75 -88q57 -31 73 -86 q4 -20 4 -115q0 -109 -6 -123q-18 -47 -115 -47h-30q-16 0 -35 2v-174h815z" />
<glyph unicode="J" horiz-adv-x="1402" d="M1298 891v174h-770v-174h16q111 0 130 -29q8 -10 8 -125q0 -92 -2 -98q-12 -59 -76 -92q59 -37 76 -92q2 -10 2 -88q0 -90 -8 -113q-25 -72 -115 -72q-27 0 -61 11q-55 18 -56 57v211h-436v-262q0 -145 244 -199q135 -31 293 -31q575 0 575 228v256q0 16 31 53 q29 35 47 39q-61 39 -74 92q-4 20 -4 98q0 102 8 117q23 41 115 41h27q14 0 30 -2z" />
<glyph unicode="K" horiz-adv-x="1542" d="M1454 0v174q-13 -3 -30 -3q-22 0 -50 5q-74 12 -74 53v164q0 166 -210 193q-45 6 -79 10t-57 6l131 146q45 51 56 59q96 88 217 88q12 0 24.5 -1t26.5 -3v174h-575v-174q6 1 11 1q27 0 46 -24l-136 -160q-60 -69 -108 -116l-4 244q6 59 76 59q8 0 20 -4v174h-706v-174 q133 -4 162 -39q14 -16 14 -125q0 -37 -1 -59.5t-3 -32.5q-16 -66 -76 -92q57 -20 74 -84q6 -29 6 -109q0 -102 -10 -127q-20 -51 -117 -51h-23q-12 0 -26 2v-174h706v174q-96 4 -96 70q0 41 51 86q53 47 92 47q98 0 99 -76v-174q0 -43 47 -86q51 -41 92 -41h430z" />
<glyph unicode="L" horiz-adv-x="1341" d="M1247 0v455h-311v-152q0 -63 -66 -98q-53 -29 -122 -29q-23 0 -37.5 1t-22.5 3v273q0 18 33 51q37 37 53 39q-63 33 -80 90q-6 20 -6 98q0 102 12 125q20 37 121 37h31q16 0 37 -2v174h-848v-174h137q78 0 78 -96v-15q0 -8 -2 -18v-27q0 -10 2 -29.5t2 -29.5 q0 -84 -82 -133q61 -25 74 -97q4 -20 4 -104l2 -20v-37q0 -111 -66 -111h-149v-174h1206z" />
<glyph unicode="M" horiz-adv-x="1781" d="M1675 891v170h-686l-83 -340l-58 -227q-4 4 -6 7t-4 5q-41 221 -111 559h-694v-174q14 2 24 2h23q82 0 98 -43q4 -16 4 -113q0 -92 -2 -98q-16 -59 -76 -92q57 -33 74 -96q2 -10 3 -37t1 -72q0 -100 -4 -117q-18 -53 -98 -53h-23q-10 0 -24 2v-174h479v174q-10 -1 -19 0 q-91 0 -92 55v519l224 -748h258l235 721v-496q0 -52 -90 -52q-10 0 -20 1v-174h667v174q-12 -2 -24 -2h-23q-84 0 -102 53q-4 16 -4 117v14q0 10 -2 21v33q0 90 79 137q-59 31 -73 86q-4 20 -4 102q0 104 8 119q23 38 111 38q16 0 34 -1z" />
<glyph unicode="N" horiz-adv-x="1529" d="M1430 891v174h-533v-174q20 2 36 2q95 0 95 -59v-451l-301 682h-686v-174q18 1 35 1q92 0 110 -30q8 -10 9 -125q0 -98 -2 -104q-14 -57 -82 -90q66 -18 79 -88q2 -10 3.5 -38t1.5 -75q0 -100 -5 -117q-18 -53 -102 -53h-22q-12 0 -25 2v-174h549v174q-16 -2 -33 -2 q-24 0 -47 4q-76 8 -76 60v499l322 -735h497v453q4 20 31 53q33 37 49 39q-59 31 -73 86q-4 20 -5 100q0 111 13 127q25 33 147 33h15z" />
<glyph unicode="O" horiz-adv-x="1583" d="M1501 543q-20 14 -53 57q-31 39 -37 68q-115 430 -653 430q-426 0 -580 -248q-14 -20 -55 -162q-31 -102 -100 -145q29 -16 45 -28.5t20 -18.5q33 -49 39 -97q20 -158 154 -282q137 -125 294 -133l161 -11.5t32 -3.5q276 0 434 103q172 117 236 372q38 70 63 99zM969 367 q0 -205 -193 -205q-94 0 -149.5 58.5t-55.5 152.5q0 49 22.5 101t63.5 69q-57 45 -71 82q-8 18 -8 73q0 193 190 193q195 0 195 -186q0 -106 -78 -162q84 -35 84 -176z" />
<glyph unicode="P" horiz-adv-x="1472" d="M1430 745h-3q-22 0 -59 68l-61 115q-39 55 -136 94q-98 43 -167 43h-971v-174q20 2 37.5 3t33.5 1q96 0 111 -39q6 -16 6 -121q0 -94 -2 -100q-16 -61 -76 -92q57 -25 74 -86q2 -10 3 -38t1 -75q0 -115 -12 -129q-25 -42 -144 -42q-15 0 -32 1v-174h823v174h-131 q-29 0 -52.5 26.5t-23.5 55.5v135h381q61 0 160 41q92 39 127 90q20 31 49 121q21 69 64 102zM936 725q0 -55 -31 -100q-37 -51 -90 -52h-158v310h170q43 0 78 -60q31 -53 31 -98z" />
<glyph unicode="Q" horiz-adv-x="1509" d="M1450 543q-12 6 -27.5 21.5t-29 31.5t-23.5 33.5t-10 29.5q-29 242 -250 355q-164 84 -373 84q-444 0 -579 -307q-16 -57 -27 -89l-12 -36q-35 -90 -99 -123q51 -8 62 -47q55 -193 162 -332q141 -188 327 -189h27q12 0 27 2q-18 -8 -31.5 -13t-22.5 -9l60 -72l41 -51 q52 33 85 33h7l373 -129q7 -1 13 -1q66 0 146 54q86 59 121 131q-23 33 -45 61.5t-49 51.5q-45 -57 -115 -58q-84 0 -168 48q201 66 277 200q18 31 57 170q33 111 76 150zM936 377q0 -215 -184 -215q-186 0 -187 203q0 113 84 178q-84 59 -84 162q0 86 45 142t127 56 q186 0 187 -190q0 -102 -72 -164q84 -78 84 -172z" />
<glyph unicode="R" horiz-adv-x="1595" d="M1501 0v174q-6 -2 -16 -2q-18 0 -49 10q-45 14 -45 41v139q0 63 -88 115q-53 33 -113 45q84 4 170 103q27 29 53 62l55 71q-41 29 -43 45q-35 133 -180 207q-111 55 -229 55h-983v-174q20 2 37.5 3t33.5 1q96 0 111 -39q6 -16 6 -121q0 -98 -2 -104q-16 -74 -82 -88 q61 -25 78 -80q6 -23 6 -119q0 -115 -12 -129q-25 -42 -144 -42q-15 0 -32 1v-174h753v174q-92 4 -100 6q-37 14 -37 76v154h172q33 0 74 -31t41 -64v-174q0 -49 57 -94q59 -47 109 -47h399zM956 758q0 -47 -30 -86q-35 -47 -78 -47h-191v258h185q47 0 80.5 -39t33.5 -86z " />
<glyph unicode="S" horiz-adv-x="1357" d="M1247 360q0 117 -49 183q-47 55 -160 104q-53 10 -91 16.5l-60 10.5q-104 18 -135 86q-47 -45 -115 -45q-156 0 -156 98q0 90 168 90q117 0 170 -35q61 -41 72 -151h297v348h-264q1 -16 1 -28q0 -25 -5 -36q-145 96 -338 97q-190 0 -340 -88q-190 -111 -191 -318 q0 -219 211 -286q16 -4 44 -8.5t69 -6.5q74 -4 110 -18q55 -20 97 -86q18 57 131 57q133 0 133 -84q0 -78 -180 -78q-231 0 -250 148h-350v-322h309q-6 18 -6 39q0 18 6 37q168 -102 373 -102q180 0 317 75q182 102 182 303z" />
<glyph unicode="T" horiz-adv-x="1345" d="M1260 639v426h-1227v-428h311v199q0 49 76 49q25 0 29 -4v-246q0 -27 -78 -92q61 -31 73 -82q4 -20 5 -119v-111q-6 -47 -80 -55q-6 -2 -109 -2v-174h772v174q-16 -2 -31 -2h-28q-100 0 -121 49q-6 14 -6 121q0 102 2 109q16 80 82 92q-10 6 -24 17l-27 25 q-14 13 -24.5 26.5t-10.5 21.5v252h49q16 0 35.5 -22.5t21.5 -41.5v-182h310z" />
<glyph unicode="U" horiz-adv-x="1531" d="M1430 891v174h-578v-174q16 1 31 1q79 0 98 -38q6 -16 6 -119q0 -94 -2 -100q-14 -63 -76 -88q63 -37 76 -92q2 -6 2 -82q0 -55 -9 -92t-30.5 -58.5t-58.5 -31t-92 -9.5q-109 0 -135 25q-37 33 -37 151q0 86 2 93q14 63 75 96q-61 39 -75 90q-2 10 -2 98q0 45 1 69.5 t3 33.5q14 57 94 57q10 0 20.5 -1t22.5 -3v174h-739v-174q16 2 29.5 3t27.5 1q82 0 100 -51q4 -16 4 -107q0 -88 -2 -98q-16 -61 -75 -94q16 -4 46.5 -41t30.5 -53v-238q0 -150 215 -207q137 -37 338 -37q506 0 506 260v224q0 18 29 53q33 37 49 39q-55 31 -72 90 q-6 20 -6 96q0 111 15 127q29 33 153 33h15z" />
<glyph unicode="V" horiz-adv-x="1597" d="M1520 891v174h-602v-174q104 0 135 -31q-10 -76 -74 -237l-131 -324l-74 215q6 51 31 76q-47 4 -96 98q-45 88 -45 143q0 59 75 62q14 2 39 1t60 -3v174h-824v-174q11 1 23 0q73 0 135 -23q25 -8 66 -110q41 -100 41 -137q0 -49 -31 -86q80 -29 135 -185l83 -232 q32 -87 48 -118h473q29 59 80 201q23 66 43 116t37 82q53 106 121 138q-33 31 -33 61q0 20 41 121q45 106 82 143q29 29 82 29h80z" />
<glyph unicode="W" horiz-adv-x="1914" d="M1819 891v174h-537v-174q13 1 25 1q54 0 77 -30q-16 -88 -38 -184l-50 -203l-153 590h-303l-174 -596l-88 354q-1 7 -2 13q0 27 30 43q27 14 70 14q20 0 31 -2v174h-699v-174q16 1 31 1q88 0 125 -42q31 -33 55 -152q14 -63 14 -94q0 -20 -16 -50t-35 -38 q70 -25 107 -123q10 -29 21.5 -78t25.5 -120q23 -137 49 -195h399q74 279 136 455l114 -455h396q10 33 22 81t22.5 113.5t22.5 114.5t23 82q33 96 92 131q-51 37 -51 80q0 20 28 125q35 117 53 135q31 27 87 31h28q23 0 62 -2z" />
<glyph unicode="X" horiz-adv-x="1538" d="M1448 891v174h-576v-174h62q47 -6 47 -33q0 -25 -121 -176l-95 110q-40 46 -63 76q16 16 21 23q6 2 14 0t17 -2q10 0 19 -1t20 -3v180h-779v-174q16 8 39 8q82 0 203 -129l114 -128l72 -81q-82 -125 -137 -125q-6 0 -18 4q6 -16 6 -32q0 -55 -66 -138q-84 -102 -168 -102 q-20 0 -39 6v-174h590v174h-69q-37 2 -54 37q29 80 121 172l160 -190q-23 -18 -72 -19v-174h740v174q-20 -4 -31 -4q-63 0 -137 68q-20 18 -51 53t-72 86q-37 47 -67.5 79.5t-57.5 53.5l45 62l29 40q39 57 106 68q-4 21 -4 38q0 23 8 38q74 137 215 137q21 0 29 -2z" />
<glyph unicode="Y" horiz-adv-x="1615" d="M1546 891v174h-655v-174h59q33 -6 51 -31q2 -39 -159 -242q-139 186 -140 230q0 31 48 41q31 6 49 2v174h-791v-174q31 10 53 10q86 0 183 -96q121 -121 121 -236q0 -10 -1.5 -17t-3.5 -15q72 -25 82 -31q10 -8 26.5 -25.5t39.5 -44.5q45 -51 45 -69v-148 q0 -10 -22.5 -26.5t-34.5 -18.5h-138v-174h830v174h-137q-63 0 -64 115q0 84 55 157q52 68 124 69q8 0 16 -1q-12 27 -13 57q0 80 91 187q123 141 241 141q27 0 45 -8z" />
<glyph unicode="Z" horiz-adv-x="1267" d="M1143 389v-389h-1116v180l194 207q121 131 121 201q0 6 -4 18q12 -2 23 -2q54 0 102 41q16 14 41 43l59 70q70 88 107 116q-10 2 -41 3h-80q-113 0 -135 -9q-29 -8 -64 -96q-20 -49 -28 -82h-295v375h1116v-238q-20 -31 -162 -178q-98 -102 -98 -164q0 -20 8 -34h-10 q-77 0 -160 -93l-107 -118q-37 -41 -43 -47h207q95 23 95 171q0 12 -1 25h271z" />
<glyph unicode="[" horiz-adv-x="720" d="M629 -354v153h-137q-18 2 -44 17.5t-26 31.5v455q0 29 65 64q-66 35 -65 65v424q0 6 8 15.5t20.5 17.5t25.5 15t22 7h131v154h-498v-612q0 -20 -19.5 -50t-39.5 -32q59 -66 59 -76v-649h498z" />
<glyph unicode="\" horiz-adv-x="737" d="M733 -164l-637 1372h-157l641 -1372h153z" />
<glyph unicode="]" horiz-adv-x="698" d="M592 375q-14 2 -37 25.5t-23 37.5v627h-505v-154h125q25 0 56.5 -19.5t31.5 -43.5v-416q0 -6 -7.5 -16t-17.5 -19.5t-21.5 -18.5t-17.5 -11q14 -6 39 -32t25 -40v-438q0 -57 -68 -58h-145v-153h505v651q1 25 60 78z" />
<glyph unicode="^" horiz-adv-x="835" d="M702 860l-202 324h-271l-202 -324h213l127 180l122 -180h213z" />
<glyph unicode="_" horiz-adv-x="847" d="M942 -225v78h-942v-78h942z" />
<glyph unicode="`" horiz-adv-x="1275" d="M651 856l-71 324h-377l223 -324h225z" />
<glyph unicode="a" horiz-adv-x="1275" d="M1182 0v168q-16 -1 -29 -1q-53 0 -72 13q-29 18 -28 90q0 98 65 123q-10 6 -39 37q-27 29 -26 41v158q0 90 -170 143q-117 35 -207 35q-154 0 -307 -72q-10 8 -7 37h-251v-237h258q35 96 174 96q145 0 145 -99q0 -20 -4 -24h-205q-317 0 -467 -252q31 -31 37 -39 q94 -248 373 -248q174 0 270 90q6 -29 4 -59h486zM688 176q-35 -20 -110 -20q-150 0 -150 92q0 90 158 90q109 0 102 -2v-160z" />
<glyph unicode="b" horiz-adv-x="1310" d="M1262 393q-49 31 -74 105q-16 47 -29.5 78.5t-23.5 46.5q-117 164 -328 163q-147 0 -250 -84v363h-524v-160l62 -3q22 -1 24 -1q63 -12 63 -67v-369q0 -6 -6 -18.5t-15 -23.5t-18.5 -20.5t-15.5 -9.5q55 -6 55 -110q0 -82 -35 -105q-19 -12 -71 -12q-19 0 -43 2v-166h499 q-6 20 -6 41q0 12 4 29q96 -90 267 -90q319 0 420 352q8 26 45 59zM813 299q0 -123 -127 -123q-55 0 -94 28.5t-39 82.5q0 68 57 106q-18 4 -34.5 33t-16.5 51q0 47 41 81t88 34q119 0 119 -115q0 -51 -39 -84q35 -35 41 -55q4 -8 4 -39z" />
<glyph unicode="c" horiz-adv-x="1202" d="M1110 299h-336q0 -66 -38 -104.5t-103 -38.5q-61 0 -106.5 35.5t-45.5 95.5q0 43 66 114q-29 6 -47.5 37t-18.5 62q0 111 140 110q145 0 153 -161h303v323h-270q0 -43 -4 -51q-117 86 -260 86q-102 0 -211 -35q-119 -39 -180 -110q-16 -18 -64 -130q-43 -106 -82 -139 q8 0 18.5 -8t19.5 -19.5t16.5 -23.5t9.5 -20q74 -352 524 -353q170 0 315 62q199 90 201 268z" />
<glyph unicode="d" horiz-adv-x="1269" d="M1253 2v166q-29 -1 -51 -1q-56 0 -72 7q-39 18 -38 102q0 94 59 117q-6 2 -16.5 12.5t-19.5 22.5t-16 24.5t-7 18.5v594h-539v-160q19 0 35 1q82 0 104 -9q35 -16 35 -98q0 -45 -4 -58q-84 66 -236 66q-221 0 -348 -164q-23 -29 -53 -133q-27 -88 -66 -117q43 -31 50 -71 q25 -160 137 -256q115 -96 274 -97q168 0 295 115q4 -20 4 -35q0 -23 -6 -47h479zM721 289q0 -113 -133 -113t-133 117q0 59 59 100q-41 33 -49 43q-16 23 -16 62q0 121 126 120q61 0 100.5 -33.5t39.5 -92.5v-41q-8 -27 -45 -58q51 -32 51 -104z" />
<glyph unicode="e" horiz-adv-x="1261" d="M1169 246h-413q-23 -102 -146 -103q-72 0 -116 33q-51 39 -52 107q0 27 4 30h717v101q0 188 -221 303q-176 90 -340 90q-416 0 -539 -342q-8 -27 -57 -72q35 -16 49 -71q51 -178 211 -273q143 -80 342 -80q150 0 297 54q194 73 264 223zM772 475h-323v35q0 53 55 90 q45 31 104 31q61 0 112.5 -34t51.5 -93v-29z" />
<glyph unicode="f" horiz-adv-x="860" d="M760 897v219h-154q-217 0 -305 -51q-126 -72 -126 -267q0 -15 1 -30h-149v-170h155v-152q0 -18 -59 -53q47 -41 55 -65q4 -16 4 -56q0 -74 -41 -96q-24 -9 -87 -8h-27v-168h712v168h-137q-49 0 -49 96q0 45 4 58q8 33 53 71q-6 4 -16 12.5t-19.5 17.5t-15.5 18.5t-6 15.5 v141h180v170h-180v55q0 16 11 29.5t28.5 24t38 15.5t39.5 5h90z" />
<glyph unicode="g" horiz-adv-x="1284" d="M1169 393q-68 37 -67 119q0 10 2 29.5t2 29.5q0 168 51 201h-389v-16q0 -31 -6 -47q-84 57 -123 73q-59 25 -139 25q-94 0 -183 -37q-100 -41 -149 -106q-37 -45 -72 -144q-23 -59 -90 -127q43 -31 84 -133q43 -109 49 -117q137 -168 361 -168q49 0 114 17q74 16 103 47 l4 -66q-18 -147 -229 -147q-158 0 -289 59l-53 -219q203 -80 370 -80q264 0 422 131q170 139 170 396v209q0 38 57 71zM709 299q0 -123 -131 -123q-129 0 -129 111q0 90 65 106q-59 37 -59 94q0 49 36.5 83t86.5 34q47 0 89 -29.5t42 -76.5q0 -55 -66 -105q66 -24 66 -94z " />
<glyph unicode="h" horiz-adv-x="1435" d="M1370 0v168q-109 2 -127 10q-27 14 -26 88q0 53 2 58q6 25 55 69q-6 2 -16.5 12.5t-19.5 20.5t-15 21.5t-6 17.5v149q0 92 -152 152q-111 41 -195 41q-172 0 -307 -98v356h-536v-168q25 2 39 3t18 1q104 0 104 -59v-389q0 -8 -57 -66q57 -27 57 -117q0 -78 -26 -90 q-10 -6 -135 -12v-168h641v168q-72 2 -88 12q-20 14 -21 80q0 55 21 88q2 8 36 45q-57 25 -57 76q0 47 53 82q45 27 101 27q125 0 125 -97q0 -53 -58 -90q45 -37 56 -65q2 -6 2 -60q0 -55 -4 -67q-15 -31 -72 -31h-14v-168h622z" />
<glyph unicode="i" horiz-adv-x="737" d="M518 858v240h-393v-240h393zM700 0v168q-31 -2 -53 -2q-37 0 -51 6q-37 14 -37 88q0 53 2 59q8 39 57 74q-59 41 -59 58v315h-518v-160q16 2 29 2h24q57 0 75.5 -22.5t18.5 -81.5q0 -47 -4 -60q-14 -31 -61 -51q66 -23 65 -123q0 -76 -36 -94q-22 -9 -85 -8h-26v-168h659 z" />
<glyph unicode="j" horiz-adv-x="706" d="M518 858v240h-393v-240h393zM625 393q-66 35 -66 58v315h-518v-168q39 3 64 3q34 0 45 -5q39 -14 38 -88q0 -49 -8 -66q-12 -29 -57 -49q6 -4 17.5 -13t22.5 -19.5t18 -21.5t7 -17v-381q0 -55 -48 -91t-105 -36t-96 18l-66 -186q109 -59 260 -60q129 0 252 58 q174 80 174 231v447q0 12 27 38q31 31 39 33z" />
<glyph unicode="k" horiz-adv-x="1263" d="M1194 168q-29 -6 -51 -6q-68 0 -80 80q-18 121 -35 149q-51 82 -215 82l80 76q35 33 61 55h170v162h-315q-121 -121 -246 -234v533h-536v-168q25 2 39 3t18 1q104 0 104 -59v-389q0 -18 -65 -60q49 -35 61 -67q4 -16 4 -56q0 -78 -30 -92q-6 -2 -39 -4t-92 -6v-168h602 v168q-41 -4 -51 0q-18 8 -19 43q0 29 22.5 58.5t49.5 29.5q66 0 86 -76q4 -16 20 -145q29 -78 131 -78h326v168z" />
<glyph unicode="l" horiz-adv-x="753" d="M668 0v168q-72 2 -88 12q-20 14 -21 80q0 25 1 40t3 24q12 43 62 69q-66 35 -66 58v614h-532v-168h88q74 -10 73 -49v-389q0 -14 -24.5 -36t-40.5 -30q49 -35 61 -67q4 -16 4 -56q0 -78 -30 -92q-6 -2 -39 -4t-92 -6v-168h641z" />
<glyph unicode="m" horiz-adv-x="1935" d="M1839 0v168q-10 0 -18 -1q-66 0 -84 28q-14 16 -15 75q0 43 4 56q8 20 56 67q-6 2 -16.5 12.5t-19.5 22.5t-16.5 24.5t-7.5 18.5v150q0 104 -143 153q-92 33 -188 33q-215 0 -316 -137q-98 137 -276 137q-174 0 -287 -125q-6 20 -6 41q0 20 6 43h-479v-160q22 1 40 1 q28 0 48 -2q33 -3 43 -7q31 -16 31 -98q0 -45 -5 -58q-10 -25 -61 -49q53 -35 61 -65q4 -16 5 -58q0 -78 -27 -90q-10 -6 -135 -12v-168h583v168q-59 4 -75 33q-8 14 -9 65q0 47 5 60q8 27 55 67q-53 29 -53 82q0 47 41 75t90 28q45 0 74.5 -29t29.5 -74q0 -27 -17.5 -52.5 t-41.5 -29.5q51 -39 61 -69q4 -12 4 -58q0 -53 -4 -65q-12 -29 -67 -33v-168h493v168q-78 6 -78 96q0 41 4 58q8 31 56 71q-39 18 -45 39q-2 2 -2 33q0 106 125 106q104 0 104 -94q0 -33 -12 -53q-10 -10 -18.5 -19.5t-16.5 -19.5q41 -25 49 -57q4 -12 4 -58q0 -51 -10 -67 q-16 -29 -68 -35v-168h545z" />
<glyph unicode="n" horiz-adv-x="1419" d="M1325 0v168q-111 2 -129 10q-27 14 -27 88q0 45 5 62q10 33 55 65q-6 2 -16.5 12.5t-19.5 20.5t-16.5 21.5t-7.5 17.5v137q0 104 -145 164q-106 41 -195 41q-180 0 -317 -125q-6 20 -6 41q0 20 6 43h-479v-160q22 1 40 1q28 0 48 -2q33 -3 43 -7q31 -16 31 -98 q0 -45 -5 -58q-10 -25 -61 -49q53 -35 61 -65q4 -16 5 -58q0 -78 -27 -90q-10 -6 -135 -12v-168h610v168q-82 4 -92 10q-18 12 -19 82q0 49 5 62q10 39 55 71q-53 35 -53 78q0 25 12 46.5t32.5 38.5t46 26.5t50.5 9.5q119 0 119 -105q0 -45 -2 -51q-6 -25 -49 -43 q66 -41 65 -127q0 -47 -10 -67q-18 -33 -62 -33q-11 0 -24 2v-168h608z" />
<glyph unicode="o" horiz-adv-x="1277" d="M1241 393q-55 68 -70 99q-135 315 -544 315q-418 0 -551 -348q-10 -23 -56 -66q8 -6 19.5 -18.5t21 -26.5t17.5 -28.5t10 -24.5q47 -188 242 -270q135 -55 303 -56q430 0 565 377q12 35 43 47zM768 492q0 -61 -53 -93q2 -4 30 -37q14 -14 15 -63q0 -59 -38 -98t-97 -39 q-55 0 -93 34.5t-38 90.5q0 76 59 106q-66 43 -66 94q0 123 140 123q55 0 98 -32.5t43 -85.5z" />
<glyph unicode="p" horiz-adv-x="1310" d="M1274 393q-39 23 -57 72q-127 342 -408 342q-145 0 -272 -113q-4 20 -5 33q0 16 7 39h-531v-168q33 1 58 1q63 0 79 -7q37 -16 37 -94q0 -37 -4 -54q-8 -27 -47 -59q6 0 15.5 -9t17.5 -21.5t13 -26t5 -21.5v-463q0 -59 -63 -67l-92 -4v-160h694v160q-104 0 -125 10 q-49 27 -49 102l6 66q2 29 3 49t-1 31q119 -61 244 -62q217 0 348 168q31 41 57 137q25 86 70 119zM831 293q0 -53 -34.5 -89t-87.5 -36q-57 0 -97.5 30.5t-40.5 88.5q0 82 60 106q-20 8 -36.5 32t-16.5 46q0 106 131 107q117 0 116 -101q0 -63 -51 -84q57 -51 57 -100z" />
<glyph unicode="q" horiz-adv-x="1394" d="M1286 598v168h-538q6 -25 6 -43q0 -14 -4 -27q-115 111 -273 111q-213 0 -332 -178q-10 -14 -23 -44t-30 -77q-27 -72 -72 -115q53 -53 56 -78q25 -154 145 -243q113 -82 273 -82q156 0 235 49l6 -176q2 -92 -119 -92h-16q-10 0 -33 2v-160h699v160l-97 4q-63 8 -63 65 v473q0 6 6 18.5t15.5 25t19.5 21.5t16 13q-57 20 -57 105q0 76 43 94q20 7 96 6h41zM715 303q0 -115 -137 -115q-117 0 -117 117q0 53 53 88q-4 4 -13 15.5t-20 31.5q-20 39 -20 54q0 43 37 73.5t80 30.5q55 0 93 -30.5t38 -84.5q0 -57 -52 -90q58 -33 58 -90z" />
<glyph unicode="r" horiz-adv-x="1001" d="M903 526v240h-235q-27 0 -54.5 -10.5t-51 -28.5t-42 -41.5t-28.5 -48.5q-2 16 -3.5 31.5t-1.5 31.5t1 33t4 33h-451v-160q17 1 32 1q22 0 38 -2q27 -3 36 -7q35 -16 35 -90q0 -47 -4 -64q-8 -33 -55 -51q47 -35 55 -65q4 -16 4 -58q0 -74 -28 -90q-18 -13 -91 -12h-22 v-168h674v168q-119 0 -131 4q-31 12 -31 84q0 57 2 63q8 39 59 74q-55 27 -55 62q0 33 33 53q27 18 61 18h250z" />
<glyph unicode="s" horiz-adv-x="1120" d="M635 512q-53 23 -66 41q-33 -33 -94 -33q-98 0 -98 58q0 66 123 65q143 0 178 -90h264v219h-240q2 -27 -4 -37q-115 72 -256 72q-145 0 -258 -68q-145 -90 -145 -252q0 -131 106 -182q66 -31 211 -49q127 -16 148 -41q35 33 94 33q72 0 72 -47q0 -78 -133 -78 q-143 0 -220 110h-245v-233h239q-1 16 -1 29q0 25 5 37q106 -96 306 -97q154 0 266 72q127 86 127 235q0 137 -131 195q-86 41 -223 41h-25z" />
<glyph unicode="t" horiz-adv-x="860" d="M748 598v170h-216v238h-370v-238h-162v-170h162v-152q0 -6 -7.5 -15t-17.5 -17t-21.5 -14.5t-17.5 -6.5q63 -45 64 -71v-181q0 -63 88 -106q74 -35 125 -35h358v168h-151q-49 0 -50 96q0 45 5 62q12 33 61 67q-18 2 -42 24.5t-24 39.5v141h216z" />
<glyph unicode="u" horiz-adv-x="1300" d="M1280 2v160q-33 -1 -59 -1q-63 0 -74 7q-29 16 -29 98q0 49 4 62q10 25 62 45q-66 47 -66 71v322h-454v-168q92 0 106 -14q10 -10 10 -76q0 -55 -6 -70q-8 -27 -53 -65q47 -25 53 -72v-78q-14 -18 -65 -33q-45 -14 -78 -14q-123 0 -123 103v47q10 25 51 51q-66 43 -65 88 v301h-474v-168h13q69 0 88 -20q16 -16 16 -78q0 -45 -4 -62q-10 -33 -55 -65q16 -8 37.5 -32t21.5 -40v-135q0 -106 150 -162q104 -35 194 -35q197 0 328 121q2 -10 3 -20.5t1 -20.5q0 -27 -6 -47h473z" />
<glyph unicode="v" horiz-adv-x="1318" d="M1221 598v168h-473v-168h47q27 0 45 -23q4 -49 -62 -163l-98 -172q-55 104 -55 137q0 29 28 63q-106 37 -106 99q0 61 67 61h13q8 0 16 -2v168h-641v-168q8 2 25 2q53 0 88 -30.5t35 -82.5q0 -37 -27 -81q72 -18 149 -173l83 -164l36 -69h400l149 250q90 147 143 162 q-17 36 -17 61q0 45 44 94q35 39 78 39q19 0 33 -8z" />
<glyph unicode="w" horiz-adv-x="1759" d="M1657 598v168h-453v-168q20 2 33 2h16q29 -4 41 -18q-4 -47 -37 -111l-65 -127l-166 422h-244l-188 -408l-74 195q0 49 68 49q6 0 22 -4v168h-610v-168q12 1 23 1q106 0 106 -107q0 -47 -31 -80q84 -31 123 -138q88 -229 113 -274h328l153 350l135 -350h355 q94 203 96 211q16 41 28.5 67.5t18.5 43.5q37 80 92 79q8 0 21 -4q-35 35 -37 45q-2 4 -2 35q0 57 39 92q33 30 79 30q8 0 17 -1z" />
<glyph unicode="x" horiz-adv-x="1409" d="M1292 598v168h-497v-160q-6 2 57 2q29 0 33 -24q-29 -41 -54.5 -71t-48.5 -52q-133 115 -133 131q0 8 6 12h72v162h-719v-168h117q68 0 240 -160q-41 -55 -97 -55q-25 0 -26 2q8 -18 8 -45q0 -51 -51 -102q-74 -74 -160 -74q-10 0 -31 4v-168h486v156q-61 0 -78 22 q29 39 57.5 70t56.5 57l72 -59q47 -41 47 -66q-16 -25 -76 -24v-156h719v168q-15 -2 -29 -2q-141 0 -307 176q61 86 109 86q8 0 20 -4q-8 14 -8 33q0 57 62 104q57 39 118 39h19q8 0 16 -2z" />
<glyph unicode="y" horiz-adv-x="1478" d="M1214 438q-94 -20 -219 -217l-10 -16l-209 -332q-96 -152 -196 -203q-59 -33 -181 -32q-80 0 -190 40v220q4 -4 82 -17q35 -4 59.5 -6t34.5 -4h7q72 0 138 82l-184 276q-115 168 -203 183q33 31 33 65q0 53 -45 88t-100 35q-16 0 -23 -2v168h668v-166q-2 -2 -51 0 q-31 4 -47 -18q0 -23 11 -44.5t30.5 -39t43 -27.5t48.5 -10q-23 -45 -23 -62q0 -39 64 -100q63 76 63 121q0 23 -16 39q57 8 77.5 35.5t20.5 87.5q-23 20 -55 18q-59 -4 -62 0v166h635v-168q-25 10 -49 10q-43 0 -90 -20q-88 -33 -88 -90q-1 -31 26 -60z" />
<glyph unicode="z" horiz-adv-x="1159" d="M1038 0v305h-219q2 -10 3 -18t1 -17q0 -78 -73 -96q-20 -4 -117 -4h-74q-29 0 -39 2l123 111q68 61 131 61q8 0 22.5 -2t22.5 -2q-4 16 -4 27q0 57 74 118q117 98 119 103v178h-961v-264h219q-2 10 -2 30q0 59 49 76q10 2 97 2q41 0 64.5 -1t33.5 -3l-70 -61l-69 -64 q-64 -48 -142 -47h-18q12 -16 12 -33q0 -53 -82 -122l-68 -60l-44 -39v-180h1011z" />
<glyph unicode="{" horiz-adv-x="776" d="M688 -354v153h-137q-20 2 -45 19.5t-25 36.5v417q-37 -4 -59 7q6 14 -21 47q-25 31 -43 41q16 2 43 39q18 25 27 51h53v393q0 18 28 38.5t48 22.5h131v154h-500v-604h-63q0 -61 -59 -90q59 -41 59 -97q41 4 63 -6v-622h500z" />
<glyph unicode="|" horiz-adv-x="559" d="M422 -354v1419h-291v-1419h291z" />
<glyph unicode="}" horiz-adv-x="720" d="M670 367q-25 10 -43.5 38.5t-16.5 55.5q-49 0 -63 6v598h-500v-154h125q23 -2 52.5 -19.5t29.5 -37.5v-397q35 4 59 -6q-4 -35 64 -84q-39 -16 -53 -48l-9 -22l-8 -25h-53v-422q0 -18 -23.5 -33.5t-46.5 -17.5h-137v-153h500v628h63q1 68 60 93z" />
<glyph unicode="~" horiz-adv-x="827" d="M696 985q-88 94 -121 133q-72 -55 -108 -55q-6 0 -14 4l-242 45q-168 -14 -199 -88l101 -166q53 37 118 60l252 -54q123 -4 213 121z" />
<glyph unicode="&#xa1;" horiz-adv-x="784" d="M29 348q43 -37 63 -96q14 -39 29 -121q61 -135 241 -135q170 0 236 129q10 25 33 125q16 72 57 98q-106 47 -139 184q-20 78 -23 213h-336q19 -303 -161 -397zM190 1098v-279h336v279h-336z" />
<glyph unicode="&#xa2;" horiz-adv-x="825" d="M723 319v56h-201q4 -35 -26.5 -59.5t-65.5 -24.5q-109 0 -108 131q0 55 26 94q27 49 80 49q41 0 71.5 -32.5t22.5 -71.5h180v225h-133q0 -29 -6 -31q-53 31 -80 43v152h-149v-143q-98 -35 -105 -37q-53 -25 -88 -68q-4 -6 -19.5 -31.5t-37.5 -72.5q-35 -66 -55 -66 q12 -12 31.5 -38.5t45.5 -67.5q51 -80 87 -113q59 -53 141 -63v-150h153q-2 35 -2 61v48q0 39 2 41q74 -10 154 43q82 50 82 126z" />
<glyph unicode="&#xa3;" horiz-adv-x="1316" d="M1221 0v401h-330q8 -227 -127 -227h-180l55 186v121h270v176h-245v68q0 39 30 92q35 59 70 60q59 0 59 -68q0 -8 -4 -21h377v21q-74 289 -483 289q-428 0 -465 -441h-150v-176h144v-28q0 -63 -105 -119q16 -8 40 -33t24 -41q0 -55 -76 -74l-98 -12v-174h1194z" />
<glyph unicode="&#xa4;" horiz-adv-x="1062" d="M961 809l-109 106q-125 -125 -162 -155q-88 53 -186 53q-102 0 -197 -53l-157 155l-107 -106l156 -170q-23 -23 -37 -86q-14 -51 -15 -94q0 -104 52 -189l-98 -100l-58 -64l107 -106l157 156q117 -51 195 -52q131 0 188 58l162 -162l109 106l-158 170q53 78 53 183 q0 98 -53 186zM700 455q0 -78 -59 -138q-57 -57 -137 -57q-41 0 -77 16.5t-63.5 43t-44 62.5t-16.5 77t16.5 76.5t44 62.5t63.5 42t77 15t76.5 -16t62.5 -44t42 -63.5t15 -76.5z" />
<glyph unicode="&#xa5;" horiz-adv-x="1626" d="M1552 481v178h-356q156 236 307 236q10 0 21.5 -1t21.5 -3v174h-655v-174h59q33 -6 51 -31q2 -35 -43 -92q-80 -102 -84 -113h-57l-30 44l-33 53q-51 78 -52 96q0 31 48 41q31 6 49 2v174h-791v-174q25 6 49 6q178 0 287 -238h-336v-178h469q10 -18 47 -63q29 -39 29 -45 v-154q0 -10 -22.5 -26.5t-34.5 -18.5h-138v-174h830v174h-137q-63 27 -64 49v139q0 16 90 119h475z" />
<glyph unicode="&#xa6;" horiz-adv-x="409" d="M49 1243v-645h309v645h-309zM49 322v-641h309v641h-309z" />
<glyph unicode="&#xa7;" horiz-adv-x="952" d="M913 246q0 102 -79 155q80 76 79 187q0 106 -79 153q-29 16 -162 50q-123 31 -150 53q-35 -37 -88 -37q-82 0 -82 55t107 56q111 0 157 -72h232v186h-211q4 -31 -4 -35q-88 66 -225 66q-147 0 -248 -64q-115 -78 -115 -219q0 -66 27 -94q49 -51 53 -63q-80 -84 -80 -191 q0 -106 76 -149q41 -25 166 -45q129 -23 172 -43q57 31 88 30q61 0 61 -43q0 -74 -116 -73q-137 0 -193 100h-221v-209h209q0 49 4 57q125 -94 272 -94q145 0 242 68q108 78 108 215zM608 524q0 -74 -143 -73q-41 0 -90 16q-59 23 -60 59q0 47 64 47q39 0 80 -34 q41 29 88 28q61 0 61 -43z" />
<glyph unicode="&#xa8;" horiz-adv-x="1275" d="M551 858v240h-281v-240h281zM928 856v240h-281v-240h281z" />
<glyph unicode="&#xa9;" horiz-adv-x="1208" d="M1112 449q0 209 -190 337q-164 111 -359 111q-190 0 -354 -109q-188 -127 -189 -339q0 -213 189 -340q162 -109 354 -109q190 0 352 102q197 126 197 347zM987 449q0 -172 -158 -269q-121 -76 -266 -76q-164 0 -284 89q-135 98 -136 256q0 158 136 256q121 88 284 88 q150 0 275 -82q149 -98 149 -262zM829 367v14h-200q-2 -119 -92 -119t-91 100q0 55 37 84q-37 25 -37 74q0 96 86 96t86 -122h183v213h-154q0 -25 -2 -27q-74 43 -151 43q-195 0 -240 -137q-39 -117 -68 -140q33 -16 47 -73q10 -35 18.5 -58.5t16.5 -38.5q43 -74 174 -106 q31 -8 80 -8q117 0 203 41q104 55 104 164z" />
<glyph unicode="&#xaa;" horiz-adv-x="1275" d="M1182 0v168q-16 -1 -29 -1q-53 0 -72 13q-29 18 -28 90q0 98 65 123q-10 6 -39 37q-27 29 -26 41v158q0 90 -170 143q-117 35 -207 35q-154 0 -307 -72q-10 8 -7 37h-251v-237h258q35 96 174 96q145 0 145 -99q0 -20 -4 -24h-205q-317 0 -467 -252q31 -31 37 -39 q94 -248 373 -248q174 0 270 90q6 -29 4 -59h486zM688 176q-35 -20 -110 -20q-150 0 -150 92q0 90 158 90q109 0 102 -2v-160z" />
<glyph unicode="&#xab;" horiz-adv-x="1191" d="M250 797l-217 -400l217 -397h368l-165 397l165 400h-368zM762 797l-217 -400l217 -397h368l-165 397l165 400h-368z" />
<glyph unicode="&#xac;" horiz-adv-x="0" />
<glyph unicode="&#xad;" horiz-adv-x="665" d="M623 229v283h-557v-283h557z" />
<glyph unicode="&#xae;" horiz-adv-x="1224" d="M1112 453q0 207 -190 335q-164 109 -357 109q-190 0 -354 -109q-190 -129 -191 -335q0 -217 191 -347q156 -106 354 -106q193 0 350 102q197 126 197 351zM987 453q0 -174 -149 -269q-123 -80 -273 -80q-162 0 -284 93q-137 100 -138 256q0 164 152 260q125 80 270 80 q162 0 283 -88q139 -98 139 -252zM854 242v69q-12 -2 -27 0q-18 6 -18 19v55q0 45 -78 64q33 0 111 92q-16 8 -19 18q-8 45 -63 78q-45 27 -98 27h-390v-70q61 4 70 -10q4 -8 4 -52q0 -68 -33 -75q33 -12 33 -80q0 -39 -4 -51q-12 -18 -70 -17v-67h299v67l-41 4 q-14 2 -14 29v61h68q14 0 30.5 -12t16.5 -24v-70q0 -18 23.5 -36.5t41.5 -18.5h158zM637 541q0 -53 -43 -54h-74v103h72q45 0 45 -49z" />
<glyph unicode="&#xb0;" horiz-adv-x="765" d="M625 797q0 123 -90 213q-88 88 -216 88q-129 0 -217 -88q-90 -90 -90 -213q0 -125 90 -215q88 -88 217 -88q127 0 216 88q90 90 90 215zM449 797q0 -57 -38 -92t-96 -35q-53 0 -90 36.5t-37 90.5q0 55 36 91t91 36t94.5 -36t39.5 -91z" />
<glyph unicode="&#xb2;" d="M1374 725q-55 33 -71 92q-66 281 -535 281q-199 0 -342 -56q-221 -86 -221 -286v-66h393q0 195 141 195q133 0 133 -121q0 -119 -174 -182l-196 -71l-125 -46q-172 -90 -172 -248v-209h1128v309h-309q2 -6 2 -20q0 -35 -28.5 -62.5t-63.5 -27.5h-373v22q25 51 31 56 q74 45 354 98q242 45 334 137q14 14 45 101q31 88 49 104z" />
<glyph unicode="&#xb3;" d="M1413 784q-47 35 -65 66q-147 248 -588 248q-180 0 -336 -49q-252 -80 -252 -261v-110h414q-10 213 157 213q135 0 136 -150q0 -78 -35 -108.5t-115 -30.5h-24q-12 0 -27 2v-168q47 2 81 -2t56 -12q72 -29 72 -111q0 -141 -158 -141q-88 0 -127 74q-33 55 -29 151h-409 v-53q0 -219 235 -313q154 -59 357 -60q78 0 153.5 9.5t151.5 25.5q186 45 252 133q16 25 53 96q39 76 39 95q0 16 -57 86q-49 61 -74 84q-16 16 -68 26q-68 12 -86 19q86 8 164 84q43 40 129 157z" />
<glyph unicode="&#xb4;" horiz-adv-x="1275" d="M557 856h225l224 324h-377z" />
<glyph unicode="&#xb6;" horiz-adv-x="1548" d="M1436 0v174q-141 -6 -176 41q-12 18 -13 129q0 47 1 72.5t3 34.5q12 82 74 96q-55 2 -72 80q-6 33 -6 108q0 104 6 117q23 41 121 41h29q16 0 33 -2v174h-971q-74 0 -168 -41q-96 -41 -133 -96q-8 -10 -23 -35l-37 -64q-35 -61 -65 -92q47 -35 63 -88q29 -100 56 -133 q33 -47 129 -86q98 -41 153 -41h172v-389h111v389h94v-389h619zM811 573h-88v310h88v-310zM608 586q-70 43 -69 141q0 47 8 64q12 37 61 79v-284z" />
<glyph unicode="&#xb7;" horiz-adv-x="577" d="M428 391v277h-336v-277h336z" />
<glyph unicode="&#x2219;" horiz-adv-x="577" d="M428 391v277h-336v-277h336z" />
<glyph unicode="&#xb8;" horiz-adv-x="1202" d="M520 0l-90 -147l53 -60q35 10 62 10q76 0 76 -47q0 -18 -30 -29.5t-56 -11.5q-57 0 -156 39l-45 -102q111 -47 237 -47q98 0 166 37q82 39 82 118q0 135 -157 136q-16 0 -31 -1t-29 -4l68 109h-150z" />
<glyph unicode="&#xb9;" d="M1221 0v174h-134q-49 0 -59 72q-2 10 -2 96v14q0 10 -2 21v33q0 90 80 137q-14 6 -47 39q-31 33 -31 47v432h-655v-174q145 10 186 -35q33 -33 33 -137q0 -14 2 -25v-24q0 -76 -80 -127q61 -31 74 -82q2 -10 3 -39t1 -80l2 -20q2 -10 2 -21v-16q0 -111 -66 -111h-172 v-174h865z" />
<glyph unicode="&#xba;" horiz-adv-x="1277" d="M1241 393q-55 68 -70 99q-135 315 -544 315q-418 0 -551 -348q-10 -23 -56 -66q8 -6 19.5 -18.5t21 -26.5t17.5 -28.5t10 -24.5q47 -188 242 -270q135 -55 303 -56q430 0 565 377q12 35 43 47zM768 492q0 -61 -53 -93q2 -4 30 -37q14 -14 15 -63q0 -59 -38 -98t-97 -39 q-55 0 -93 34.5t-38 90.5q0 76 59 106q-66 43 -66 94q0 123 140 123q55 0 98 -32.5t43 -85.5z" />
<glyph unicode="&#xbb;" horiz-adv-x="1191" d="M913 797l217 -400l-217 -397h-368l166 397l-166 400h368zM401 797l217 -400l-217 -397h-368l166 397l-166 400h368z" />
<glyph unicode="&#xbf;" horiz-adv-x="1153" d="M27 379q12 -2 39 -35q25 -29 24 -43q-8 -174 199 -254q135 -51 327 -51q139 0 275 41q207 68 207 221v104h-369q2 -10 2 -30q0 -125 -127 -125q-66 0 -86 31q-18 25 -18 90q0 117 100 149l53 8q59 8 93 13.5t42 7.5q94 25 95 90v158h-336v-60q0 -49 -80 -63 q-29 -4 -57.5 -6t-57.5 -7q-117 -14 -170 -61l-87 -98zM547 1098v-279h336v279h-336z" />
<glyph unicode="&#xc0;" horiz-adv-x="1660" d="M1579 0v174q-94 0 -121 8q-29 10 -78 127q-47 111 -47 152q0 55 29 84q-76 2 -143 129q-51 94 -68 194q33 20 78 25h26q20 0 50 -2v174h-1006v-174h119q29 0 63 -25q0 -68 -61 -180q-72 -135 -154 -143q33 -25 33 -62q0 -35 -45 -137q-16 -41 -31.5 -69.5t-27.5 -45.5 q-45 -59 -105 -57q-25 2 -43 2h-27v-174h629v174h-94q-74 0 -74 59q0 25 25 72h412q25 -35 24 -65q0 -51 -53 -64q-10 -2 -29.5 -3t-52.5 1v-174h772zM844 502h-252l127 272zM905 1147l-71 323h-377l223 -323h225z" />
<glyph unicode="&#xc1;" horiz-adv-x="1660" d="M1579 0v174q-94 0 -121 8q-29 10 -78 127q-47 111 -47 152q0 55 29 84q-76 2 -143 129q-51 94 -68 194q33 20 78 25h26q20 0 50 -2v174h-1006v-174h119q29 0 63 -25q0 -68 -61 -180q-72 -135 -154 -143q33 -25 33 -62q0 -35 -45 -137q-16 -41 -31.5 -69.5t-27.5 -45.5 q-45 -59 -105 -57q-25 2 -43 2h-27v-174h629v174h-94q-74 0 -74 59q0 25 25 72h412q25 -35 24 -65q0 -51 -53 -64q-10 -2 -29.5 -3t-52.5 1v-174h772zM844 502h-252l127 272zM758 1147h225l223 323h-377z" />
<glyph unicode="&#xc2;" horiz-adv-x="1660" d="M1579 0v174q-94 0 -121 8q-29 10 -78 127q-47 111 -47 152q0 55 29 84q-76 2 -143 129q-51 94 -68 194q33 20 78 25h26q20 0 50 -2v174h-1006v-174h119q29 0 63 -25q0 -68 -61 -180q-72 -135 -154 -143q33 -25 33 -62q0 -35 -45 -137q-16 -41 -31.5 -69.5t-27.5 -45.5 q-45 -59 -105 -57q-25 2 -43 2h-27v-174h629v174h-94q-74 0 -74 59q0 25 25 72h412q25 -35 24 -65q0 -51 -53 -64q-10 -2 -29.5 -3t-52.5 1v-174h772zM844 502h-252l127 272zM1145 1147l-203 323h-270l-203 -323h213l127 180l123 -180h213z" />
<glyph unicode="&#xc3;" horiz-adv-x="1660" d="M1579 0v174q-94 0 -121 8q-29 10 -78 127q-47 111 -47 152q0 55 29 84q-76 2 -143 129q-51 94 -68 194q33 20 78 25h26q20 0 50 -2v174h-1006v-174h119q29 0 63 -25q0 -68 -61 -180q-72 -135 -154 -143q33 -25 33 -62q0 -35 -45 -137q-16 -41 -31.5 -69.5t-27.5 -45.5 q-45 -59 -105 -57q-25 2 -43 2h-27v-174h629v174h-94q-74 0 -74 59q0 25 25 72h412q25 -35 24 -65q0 -51 -53 -64q-10 -2 -29.5 -3t-52.5 1v-174h772zM844 502h-252l127 272zM1151 1268q-88 94 -121 133q-72 -55 -108 -55q-6 0 -15 4l-241 45q-168 -14 -199 -88l100 -166 q53 37 119 59l252 -53q123 -4 213 121z" />
<glyph unicode="&#xc4;" horiz-adv-x="1660" d="M1579 0v174q-94 0 -121 8q-29 10 -78 127q-47 111 -47 152q0 55 29 84q-76 2 -143 129q-51 94 -68 194q33 20 78 25h26q20 0 50 -2v174h-1006v-174h119q29 0 63 -25q0 -68 -61 -180q-72 -135 -154 -143q33 -25 33 -62q0 -35 -45 -137q-16 -41 -31.5 -69.5t-27.5 -45.5 q-45 -59 -105 -57q-25 2 -43 2h-27v-174h629v174h-94q-74 0 -74 59q0 25 25 72h412q25 -35 24 -65q0 -51 -53 -64q-10 -2 -29.5 -3t-52.5 1v-174h772zM844 502h-252l127 272zM682 1149v240h-281v-240h281zM1059 1147v239h-281v-239h281z" />
<glyph unicode="&#xc5;" horiz-adv-x="1660" d="M1579 0v174q-94 0 -121 8q-29 10 -78 127q-47 111 -47 152q0 55 29 84q-76 2 -143 129q-51 94 -68 194q33 20 78 25h26q20 0 50 -2v174h-1006v-174h119q29 0 63 -25q0 -68 -61 -180q-72 -135 -154 -143q33 -25 33 -62q0 -35 -45 -137q-16 -41 -31.5 -69.5t-27.5 -45.5 q-45 -59 -105 -57q-25 2 -43 2h-27v-174h629v174h-94q-74 0 -74 59q0 25 25 72h412q25 -35 24 -65q0 -51 -53 -64q-10 -2 -29.5 -3t-52.5 1v-174h772zM844 502h-252l127 272zM817 1364q0 -37 -25.5 -62.5t-62.5 -25.5q-39 0 -63.5 25.5t-24.5 62.5q0 39 24.5 63.5t63.5 24.5 q37 0 62.5 -25.5t25.5 -62.5zM946 1364q0 88 -65 154q-63 63 -152 63q-92 0 -154.5 -62.5t-62.5 -154.5t62.5 -154.5t154.5 -62.5q88 0 152 63q65 66 65 154z" />
<glyph unicode="&#xc6;" horiz-adv-x="1898" d="M844 502h-252l127 272zM1780 645v420h-1481v-174h119q29 0 63 -25q0 -68 -61 -180q-72 -135 -154 -143q33 -25 33 -62q0 -35 -45 -137q-16 -41 -31.5 -69.5t-27.5 -45.5q-45 -59 -105 -57q-25 2 -43 2h-27v-174h629v174h-94q-74 0 -74 59q0 25 25 72h412q25 -35 24 -65 q0 -51 -53 -64q-6 -2 -17 -2h-65v-174h967v416h-297q2 -25 2 -41v-19q0 -182 -111 -182h-76q-113 0 -129 14v236h240v203h-240v258h140q33 0 88 -23q72 -31 71 -74v-143h318z" />
<glyph unicode="&#xc7;" horiz-adv-x="1417" d="M797 -29q164 8 299 66q244 104 243 342v29h-409q-4 -119 -35 -168q-43 -70 -147 -70q-182 0 -183 201q0 117 72 172q-72 49 -72 145q0 86 43 141.5t129 55.5q174 0 174 -248h369v428h-311q0 -43 -4 -51q-150 84 -306 84q-164 0 -288 -62q-145 -72 -193 -213l-27 -86 l-18 -55q-31 -94 -94 -139q63 -35 96 -150q45 -164 68 -196q88 -147 352 -213q37 -10 92 -13l-72 -118l54 -60q35 10 61 10q76 0 76 -47q0 -18 -29.5 -29.5t-56.5 -11.5q-57 0 -156 39l-45 -102q111 -47 238 -47q98 0 166 37q82 39 82 118q0 135 -158 136q-16 0 -30.5 -1 t-28.5 -4z" />
<glyph unicode="&#xc8;" horiz-adv-x="1413" d="M1292 645v420h-1259v-174q152 4 186 -37q20 -20 21 -129q0 -80 -4 -100q-14 -55 -76 -82q66 -25 78 -90q2 -6 2 -111v-90q-10 -78 -62 -78h-145v-174h1253v416h-297q2 -25 2 -41v-19q0 -182 -110 -182h-205v250h239v203h-239v258h139q33 0 88 -23q72 -31 72 -74v-143h317 zM897 1147l-72 323h-376l223 -323h225z" />
<glyph unicode="&#xc9;" horiz-adv-x="1413" d="M1292 645v420h-1259v-174q152 4 186 -37q20 -20 21 -129q0 -80 -4 -100q-14 -55 -76 -82q66 -25 78 -90q2 -6 2 -111v-90q-10 -78 -62 -78h-145v-174h1253v416h-297q2 -25 2 -41v-19q0 -182 -110 -182h-205v250h239v203h-239v258h139q33 0 88 -23q72 -31 72 -74v-143h317 zM684 1147h225l224 323h-377z" />
<glyph unicode="&#xca;" horiz-adv-x="1413" d="M1292 645v420h-1259v-174q152 4 186 -37q20 -20 21 -129q0 -80 -4 -100q-14 -55 -76 -82q66 -25 78 -90q2 -6 2 -111v-90q-10 -78 -62 -78h-145v-174h1253v416h-297q2 -25 2 -41v-19q0 -182 -110 -182h-205v250h239v203h-239v258h139q33 0 88 -23q72 -31 72 -74v-143h317 z" />
<glyph unicode="&#xcb;" horiz-adv-x="1413" d="M1292 645v420h-1259v-174q152 4 186 -37q20 -20 21 -129q0 -80 -4 -100q-14 -55 -76 -82q66 -25 78 -90q2 -6 2 -111v-90q-10 -78 -62 -78h-145v-174h1253v416h-297q2 -25 2 -41v-19q0 -182 -110 -182h-205v250h239v203h-239v258h139q33 0 88 -23q72 -31 72 -74v-143h317 zM668 1149v240h-281v-240h281zM1044 1147v239h-280v-239h280z" />
<glyph unicode="&#xcc;" horiz-adv-x="968" d="M856 0v174h-131q-49 0 -59 72q-2 10 -2 96q0 100 2 107q12 68 75 98q-80 39 -79 131v31q2 10 2 16v10q-2 16 -3.5 29.5t-1.5 23.5q0 102 66 103h131v174h-815v-174q16 2 32.5 3t30.5 1q98 0 117 -43q6 -16 6 -115q0 -100 -2 -106q-12 -57 -75 -88q57 -31 73 -86 q4 -20 4 -115q0 -109 -6 -123q-18 -47 -115 -47h-30q-16 0 -35 2v-174h815zM453 1147l-72 323h-377l223 -323h226z" />
<glyph unicode="&#xcd;" horiz-adv-x="968" d="M856 0v174h-131q-49 0 -59 72q-2 10 -2 96q0 100 2 107q12 68 75 98q-80 39 -79 131v31q2 10 2 16v10q-2 16 -3.5 29.5t-1.5 23.5q0 102 66 103h131v174h-815v-174q16 2 32.5 3t30.5 1q98 0 117 -43q6 -16 6 -115q0 -100 -2 -106q-12 -57 -75 -88q57 -31 73 -86 q4 -20 4 -115q0 -109 -6 -123q-18 -47 -115 -47h-30q-16 0 -35 2v-174h815zM477 1147h225l224 323h-377z" />
<glyph unicode="&#xce;" horiz-adv-x="968" d="M856 0v174h-131q-49 0 -59 72q-2 10 -2 96q0 100 2 107q12 68 75 98q-80 39 -79 131v31q2 10 2 16v10q-2 16 -3.5 29.5t-1.5 23.5q0 102 66 103h131v174h-815v-174q16 2 32.5 3t30.5 1q98 0 117 -43q6 -16 6 -115q0 -100 -2 -106q-12 -57 -75 -88q57 -31 73 -86 q4 -20 4 -115q0 -109 -6 -123q-18 -47 -115 -47h-30q-16 0 -35 2v-174h815zM793 1147l-203 323h-271l-202 -323h213l127 180l123 -180h213z" />
<glyph unicode="&#xcf;" horiz-adv-x="968" d="M856 0v174h-131q-49 0 -59 72q-2 10 -2 96q0 100 2 107q12 68 75 98q-80 39 -79 131v31q2 10 2 16v10q-2 16 -3.5 29.5t-1.5 23.5q0 102 66 103h131v174h-815v-174q16 2 32.5 3t30.5 1q98 0 117 -43q6 -16 6 -115q0 -100 -2 -106q-12 -57 -75 -88q57 -31 73 -86 q4 -20 4 -115q0 -109 -6 -123q-18 -47 -115 -47h-30q-16 0 -35 2v-174h815zM403 1149v240h-280v-240h280zM780 1147v239h-280v-239h280z" />
<glyph unicode="&#xd1;" horiz-adv-x="1529" d="M1430 891v174h-533v-174q131 12 131 -57v-451l-301 682h-686v-174q123 6 145 -29q8 -10 9 -125q0 -98 -2 -104q-14 -57 -82 -90q66 -18 79 -88q2 -10 3.5 -38t1.5 -75q0 -100 -5 -117q-18 -53 -102 -53h-22q-12 0 -25 2v-174h549v174q-41 -4 -80 2q-76 8 -76 60v499 l322 -735h497v453q4 20 31 53q33 37 49 39q-59 31 -73 86q-4 20 -5 100q0 111 13 127q27 35 162 33zM1151 1268q-88 94 -121 133q-72 -55 -108 -55q-6 0 -15 4l-241 45q-168 -14 -199 -88l100 -166q53 37 119 59l252 -53q123 -4 213 121z" />
<glyph unicode="&#xd2;" horiz-adv-x="1583" d="M1501 543q-20 14 -53 57q-31 39 -37 68q-115 430 -653 430q-426 0 -580 -248q-14 -20 -55 -162q-31 -102 -100 -145q29 -16 45 -28.5t20 -18.5q33 -49 39 -97q20 -158 154 -282q137 -125 294 -133l161 -11.5t32 -3.5q276 0 434 103q172 117 236 372q38 70 63 99zM969 367 q0 -205 -193 -205q-94 0 -149.5 58.5t-55.5 152.5q0 49 22.5 101t63.5 69q-57 45 -71 82q-8 18 -8 73q0 193 190 193q195 0 195 -186q0 -106 -78 -162q84 -35 84 -176zM866 1147l-71 323h-377l223 -323h225z" />
<glyph unicode="&#xd3;" horiz-adv-x="1583" d="M1501 543q-20 14 -53 57q-31 39 -37 68q-115 430 -653 430q-426 0 -580 -248q-14 -20 -55 -162q-31 -102 -100 -145q29 -16 45 -28.5t20 -18.5q33 -49 39 -97q20 -158 154 -282q137 -125 294 -133l161 -11.5t32 -3.5q276 0 434 103q172 117 236 372q38 70 63 99zM969 367 q0 -205 -193 -205q-94 0 -149.5 58.5t-55.5 152.5q0 49 22.5 101t63.5 69q-57 45 -71 82q-8 18 -8 73q0 193 190 193q195 0 195 -186q0 -106 -78 -162q84 -35 84 -176zM637 1147h225l223 323h-376z" />
<glyph unicode="&#xd4;" horiz-adv-x="1583" d="M1501 543q-20 14 -53 57q-31 39 -37 68q-115 430 -653 430q-426 0 -580 -248q-14 -20 -55 -162q-31 -102 -100 -145q29 -16 45 -28.5t20 -18.5q33 -49 39 -97q20 -158 154 -282q137 -125 294 -133l161 -11.5t32 -3.5q276 0 434 103q172 117 236 372q38 70 63 99zM969 367 q0 -205 -193 -205q-94 0 -149.5 58.5t-55.5 152.5q0 49 22.5 101t63.5 69q-57 45 -71 82q-8 18 -8 73q0 193 190 193q195 0 195 -186q0 -106 -78 -162q84 -35 84 -176zM1102 1147l-203 323h-270l-203 -323h213l127 180l123 -180h213z" />
<glyph unicode="&#xd5;" horiz-adv-x="1583" d="M1501 543q-20 14 -53 57q-31 39 -37 68q-115 430 -653 430q-426 0 -580 -248q-14 -20 -55 -162q-31 -102 -100 -145q29 -16 45 -28.5t20 -18.5q33 -49 39 -97q20 -158 154 -282q137 -125 294 -133l161 -11.5t32 -3.5q276 0 434 103q172 117 236 372q38 70 63 99zM969 367 q0 -205 -193 -205q-94 0 -149.5 58.5t-55.5 152.5q0 49 22.5 101t63.5 69q-57 45 -71 82q-8 18 -8 73q0 193 190 193q195 0 195 -186q0 -106 -78 -162q84 -35 84 -176zM1151 1268q-88 94 -121 133q-72 -55 -108 -55q-6 0 -15 4l-241 45q-168 -14 -199 -88l100 -166 q53 37 119 59l252 -53q123 -4 213 121z" />
<glyph unicode="&#xd6;" horiz-adv-x="1583" d="M1501 543q-20 14 -53 57q-31 39 -37 68q-115 430 -653 430q-426 0 -580 -248q-14 -20 -55 -162q-31 -102 -100 -145q29 -16 45 -28.5t20 -18.5q33 -49 39 -97q20 -158 154 -282q137 -125 294 -133l161 -11.5t32 -3.5q276 0 434 103q172 117 236 372q38 70 63 99zM969 367 q0 -205 -193 -205q-94 0 -149.5 58.5t-55.5 152.5q0 49 22.5 101t63.5 69q-57 45 -71 82q-8 18 -8 73q0 193 190 193q195 0 195 -186q0 -106 -78 -162q84 -35 84 -176zM719 1149v240h-281v-240h281zM1096 1147v239h-281v-239h281z" />
<glyph unicode="&#xd7;" horiz-adv-x="995" d="M748 10l180 180l-240 240l238 238l-174 174l-238 -238l-238 238l-180 -178l238 -238l-234 -233l176 -177l234 234z" />
<glyph unicode="&#xd8;" horiz-adv-x="1583" d="M1501 543q-20 14 -53 57q-31 39 -37 68q-115 430 -653 430q-426 0 -580 -248q-14 -20 -55 -162q-31 -102 -100 -145q29 -16 45 -28.5t20 -18.5q33 -49 39 -97q20 -158 154 -282q137 -125 294 -133l161 -11.5t32 -3.5q276 0 434 103q172 117 236 372q38 70 63 99zM969 367 q0 -205 -193 -205q-94 0 -149.5 58.5t-55.5 152.5q0 49 22.5 101t63.5 69q-57 45 -71 82q-8 18 -8 73q0 193 190 193q195 0 195 -186q0 -106 -78 -162q84 -35 84 -176z" />
<glyph unicode="&#xd9;" horiz-adv-x="1531" d="M1430 891v174h-578v-174q106 8 129 -37q6 -16 6 -119q0 -94 -2 -100q-14 -63 -76 -88q63 -37 76 -92q2 -6 2 -82q0 -55 -9 -92t-30.5 -58.5t-58.5 -31t-92 -9.5q-109 0 -135 25q-37 33 -37 151q0 86 2 93q14 63 75 96q-61 39 -75 90q-2 10 -2 98q0 45 1 69.5t3 33.5 q14 57 94 57q10 0 20.5 -1t22.5 -3v174h-739v-174q16 2 29.5 3t27.5 1q82 0 100 -51q4 -16 4 -107q0 -88 -2 -98q-16 -61 -75 -94q16 -4 46.5 -41t30.5 -53v-238q0 -150 215 -207q137 -37 338 -37q506 0 506 260v224q0 18 29 53q33 37 49 39q-55 31 -72 90q-6 20 -6 96 q0 111 15 127q31 35 168 33zM905 1147l-71 323h-377l223 -323h225z" />
<glyph unicode="&#xda;" horiz-adv-x="1531" d="M1430 891v174h-578v-174q106 8 129 -37q6 -16 6 -119q0 -94 -2 -100q-14 -63 -76 -88q63 -37 76 -92q2 -6 2 -82q0 -55 -9 -92t-30.5 -58.5t-58.5 -31t-92 -9.5q-109 0 -135 25q-37 33 -37 151q0 86 2 93q14 63 75 96q-61 39 -75 90q-2 10 -2 98q0 45 1 69.5t3 33.5 q14 57 94 57q10 0 20.5 -1t22.5 -3v174h-739v-174q16 2 29.5 3t27.5 1q82 0 100 -51q4 -16 4 -107q0 -88 -2 -98q-16 -61 -75 -94q16 -4 46.5 -41t30.5 -53v-238q0 -150 215 -207q137 -37 338 -37q506 0 506 260v224q0 18 29 53q33 37 49 39q-55 31 -72 90q-6 20 -6 96 q0 111 15 127q31 35 168 33zM698 1147h226l223 323h-377z" />
<glyph unicode="&#xdb;" horiz-adv-x="1531" d="M1430 891v174h-578v-174q106 8 129 -37q6 -16 6 -119q0 -94 -2 -100q-14 -63 -76 -88q63 -37 76 -92q2 -6 2 -82q0 -55 -9 -92t-30.5 -58.5t-58.5 -31t-92 -9.5q-109 0 -135 25q-37 33 -37 151q0 86 2 93q14 63 75 96q-61 39 -75 90q-2 10 -2 98q0 45 1 69.5t3 33.5 q14 57 94 57q10 0 20.5 -1t22.5 -3v174h-739v-174q16 2 29.5 3t27.5 1q82 0 100 -51q4 -16 4 -107q0 -88 -2 -98q-16 -61 -75 -94q16 -4 46.5 -41t30.5 -53v-238q0 -150 215 -207q137 -37 338 -37q506 0 506 260v224q0 18 29 53q33 37 49 39q-55 31 -72 90q-6 20 -6 96 q0 111 15 127q31 35 168 33zM1145 1147l-203 323h-270l-203 -323h213l127 180l123 -180h213z" />
<glyph unicode="&#xdc;" horiz-adv-x="1531" d="M1430 891v174h-578v-174q106 8 129 -37q6 -16 6 -119q0 -94 -2 -100q-14 -63 -76 -88q63 -37 76 -92q2 -6 2 -82q0 -55 -9 -92t-30.5 -58.5t-58.5 -31t-92 -9.5q-109 0 -135 25q-37 33 -37 151q0 86 2 93q14 63 75 96q-61 39 -75 90q-2 10 -2 98q0 45 1 69.5t3 33.5 q14 57 94 57q10 0 20.5 -1t22.5 -3v174h-739v-174q16 2 29.5 3t27.5 1q82 0 100 -51q4 -16 4 -107q0 -88 -2 -98q-16 -61 -75 -94q16 -4 46.5 -41t30.5 -53v-238q0 -150 215 -207q137 -37 338 -37q506 0 506 260v224q0 18 29 53q33 37 49 39q-55 31 -72 90q-6 20 -6 96 q0 111 15 127q31 35 168 33zM766 1149v240h-281v-240h281zM1143 1147v239h-281v-239h281z" />
<glyph unicode="&#xdd;" horiz-adv-x="1615" d="M1546 891v174h-655v-174h59q33 -6 51 -31q2 -39 -159 -242q-139 186 -140 230q0 31 48 41q31 6 49 2v174h-791v-174q31 10 53 10q86 0 183 -96q121 -121 121 -236q0 -10 -1.5 -17t-3.5 -15q72 -25 82 -31q10 -8 26.5 -25.5t39.5 -44.5q45 -51 45 -69v-148 q0 -10 -22.5 -26.5t-34.5 -18.5h-138v-174h830v174h-137q-63 0 -64 115q0 84 55 157q57 76 140 68q-12 27 -13 57q0 80 91 187q123 141 241 141q27 0 45 -8zM725 1147h225l224 323h-377z" />
<glyph unicode="&#xdf;" horiz-adv-x="1306" d="M1255 342q-49 29 -71 88q-29 82 -49 102q-39 43 -109 76q-20 10 -54 23l-81 28q127 4 246 236q-25 20 -60 88q-33 70 -65 92q-41 29 -185 47q-57 8 -101 11.5t-79 3.5q-242 0 -332 -47q-145 -78 -133 -324h-155v-168h161v-145q0 -18 -65 -60q66 -41 65 -121 q0 -76 -38 -94q-27 -12 -123 -10v-168h532v322q0 29 59 71q-59 29 -59 58v145h68q41 0 77.5 -16.5t65.5 -44t45 -64.5t16 -78q0 -74 -40.5 -126t-114.5 -52q-43 0 -58 6v-219q88 -20 173 -20q250 0 350 137q10 16 23.5 45t27.5 72q26 75 63 106zM741 819q0 -137 -159 -201 h-23v203q0 43 24.5 79t65.5 36q92 0 92 -117z" />
<glyph unicode="&#xe0;" horiz-adv-x="1275" d="M1182 0v168q-78 -4 -101 12q-29 18 -28 90q0 98 65 123q-10 6 -39 37q-27 29 -26 41v158q0 90 -170 143q-117 35 -207 35q-154 0 -307 -72q-10 8 -7 37h-251v-237h258q35 96 174 96q145 0 145 -99q0 -20 -4 -24h-205q-317 0 -467 -252q31 -31 37 -39q94 -248 373 -248 q174 0 270 90q6 -29 4 -59h486zM688 176q-35 -20 -110 -20q-150 0 -150 92q0 90 158 90q109 0 102 -2v-160zM651 856l-71 324h-377l223 -324h225z" />
<glyph unicode="&#xe1;" horiz-adv-x="1275" d="M1182 0v168q-78 -4 -101 12q-29 18 -28 90q0 98 65 123q-10 6 -39 37q-27 29 -26 41v158q0 90 -170 143q-117 35 -207 35q-154 0 -307 -72q-10 8 -7 37h-251v-237h258q35 96 174 96q145 0 145 -99q0 -20 -4 -24h-205q-317 0 -467 -252q31 -31 37 -39q94 -248 373 -248 q174 0 270 90q6 -29 4 -59h486zM688 176q-35 -20 -110 -20q-150 0 -150 92q0 90 158 90q109 0 102 -2v-160zM557 856h225l224 324h-377z" />
<glyph unicode="&#xe2;" horiz-adv-x="1275" d="M1182 0v168q-78 -4 -101 12q-29 18 -28 90q0 98 65 123q-10 6 -39 37q-27 29 -26 41v158q0 90 -170 143q-117 35 -207 35q-154 0 -307 -72q-10 8 -7 37h-251v-237h258q35 96 174 96q145 0 145 -99q0 -20 -4 -24h-205q-317 0 -467 -252q31 -31 37 -39q94 -248 373 -248 q174 0 270 90q6 -29 4 -59h486zM688 176q-35 -20 -110 -20q-150 0 -150 92q0 90 158 90q109 0 102 -2v-160zM942 856l-203 324h-270l-203 -324h213l127 180l123 -180h213z" />
<glyph unicode="&#xe3;" horiz-adv-x="1275" d="M1182 0v168q-78 -4 -101 12q-29 18 -28 90q0 98 65 123q-10 6 -39 37q-27 29 -26 41v158q0 90 -170 143q-117 35 -207 35q-154 0 -307 -72q-10 8 -7 37h-251v-237h258q35 96 174 96q145 0 145 -99q0 -20 -4 -24h-205q-317 0 -467 -252q31 -31 37 -39q94 -248 373 -248 q174 0 270 90q6 -29 4 -59h486zM688 176q-35 -20 -110 -20q-150 0 -150 92q0 90 158 90q109 0 102 -2v-160zM944 975q-88 94 -121 133q-72 -55 -108 -55q-6 0 -15 4l-241 45q-168 -14 -199 -88l100 -166q53 37 119 59l252 -53q123 -4 213 121z" />
<glyph unicode="&#xe4;" horiz-adv-x="1275" d="M1182 0v168q-78 -4 -101 12q-29 18 -28 90q0 98 65 123q-10 6 -39 37q-27 29 -26 41v158q0 90 -170 143q-117 35 -207 35q-154 0 -307 -72q-10 8 -7 37h-251v-237h258q35 96 174 96q145 0 145 -99q0 -20 -4 -24h-205q-317 0 -467 -252q31 -31 37 -39q94 -248 373 -248 q174 0 270 90q6 -29 4 -59h486zM688 176q-35 -20 -110 -20q-150 0 -150 92q0 90 158 90q109 0 102 -2v-160zM551 858v240h-281v-240h281zM928 856v240h-281v-240h281z" />
<glyph unicode="&#xe5;" horiz-adv-x="1275" d="M1182 0v168q-78 -4 -101 12q-29 18 -28 90q0 98 65 123q-10 6 -39 37q-27 29 -26 41v158q0 90 -170 143q-117 35 -207 35q-154 0 -307 -72q-10 8 -7 37h-251v-237h258q35 96 174 96q145 0 145 -99q0 -20 -4 -24h-205q-317 0 -467 -252q31 -31 37 -39q94 -248 373 -248 q174 0 270 90q6 -29 4 -59h486zM688 176q-35 -20 -110 -20q-150 0 -150 92q0 90 158 90q109 0 102 -2v-160zM700 1077q0 -37 -25.5 -62.5t-62.5 -25.5q-39 0 -63.5 25.5t-24.5 62.5q0 39 24.5 63.5t63.5 24.5q37 0 62.5 -25.5t25.5 -62.5zM829 1077q0 88 -65 154 q-63 63 -152 63q-92 0 -154.5 -62.5t-62.5 -154.5t62.5 -154.5t154.5 -62.5q88 0 152 64q65 65 65 153z" />
<glyph unicode="&#xe6;" horiz-adv-x="1748" d="M682 338v-160q-35 -20 -111 -20q-150 0 -149 92q0 90 158 90q94 0 102 -2zM1661 246h-414q-23 -102 -145 -103q-33 0 -84 13q-18 8 -19 12q-66 41 -65 115q0 14 4 30h717v101q0 176 -199 293q-170 100 -362 100q-72 0 -111 -12q-8 -4 -33.5 -14.5t-66.5 -30.5 q-137 59 -213 59q-154 0 -308 -72q-8 8 -6 27v10h-252v-237h258q35 96 175 96q145 0 145 -98q0 -12 -4 -25q-287 0 -381 -25q-182 -45 -291 -227q16 -16 25.5 -26.5t11.5 -12.5l25 -50l18 -38q104 -160 330 -160q174 0 270 90q6 -25 4 -43v-16q96 -2 150 -2h63q8 0 78 -14 q39 -8 67.5 -12.5t51.5 -4.5q174 0 321 64q177 78 240 213zM1264 475h-324v35q0 53 55 90q45 31 105 31q61 0 112.5 -34t51.5 -93v-29z" />
<glyph unicode="&#xe7;" horiz-adv-x="1202" d="M678 -27q127 12 231 58q199 90 201 268h-336q0 -66 -38 -104.5t-103 -38.5q-61 0 -106.5 35.5t-45.5 95.5q0 43 66 114q-29 6 -47.5 37t-18.5 62q0 111 140 110q145 0 153 -161h303v323h-270q0 -43 -4 -51q-117 86 -260 86q-102 0 -211 -35q-119 -39 -180 -110 q-16 -18 -64 -130q-43 -106 -82 -139q8 0 18.5 -8t19.5 -19.5t16.5 -23.5t9.5 -20q72 -326 458 -351l-71 -118l53 -60q35 10 61 10q76 0 76 -47q0 -18 -29.5 -29.5t-56.5 -11.5q-57 0 -155 39l-46 -102q111 -47 238 -47q98 0 166 37q82 39 82 118q0 135 -158 136 q-16 0 -30.5 -1t-28.5 -4z" />
<glyph unicode="&#xe8;" horiz-adv-x="1261" d="M1169 246h-413q-23 -102 -146 -103q-72 0 -116 33q-51 39 -52 107q0 27 4 30h717v101q0 188 -221 303q-176 90 -340 90q-416 0 -539 -342q-8 -27 -57 -72q35 -16 49 -71q51 -178 211 -273q143 -80 342 -80q150 0 297 54q194 73 264 223zM772 475h-323v35q0 53 55 90 q45 31 104 31q61 0 112.5 -34t51.5 -93v-29zM651 856l-71 324h-377l223 -324h225z" />
<glyph unicode="&#xe9;" horiz-adv-x="1261" d="M1169 246h-413q-23 -102 -146 -103q-72 0 -116 33q-51 39 -52 107q0 27 4 30h717v101q0 188 -221 303q-176 90 -340 90q-416 0 -539 -342q-8 -27 -57 -72q35 -16 49 -71q51 -178 211 -273q143 -80 342 -80q150 0 297 54q194 73 264 223zM772 475h-323v35q0 53 55 90 q45 31 104 31q61 0 112.5 -34t51.5 -93v-29zM557 856h225l224 324h-377z" />
<glyph unicode="&#xea;" horiz-adv-x="1261" d="M1169 246h-413q-23 -102 -146 -103q-72 0 -116 33q-51 39 -52 107q0 27 4 30h717v101q0 188 -221 303q-176 90 -340 90q-416 0 -539 -342q-8 -27 -57 -72q35 -16 49 -71q51 -178 211 -273q143 -80 342 -80q150 0 297 54q194 73 264 223zM772 475h-323v35q0 53 55 90 q45 31 104 31q61 0 112.5 -34t51.5 -93v-29zM942 856l-203 324h-270l-203 -324h213l127 180l123 -180h213z" />
<glyph unicode="&#xeb;" horiz-adv-x="1261" d="M1169 246h-413q-23 -102 -146 -103q-72 0 -116 33q-51 39 -52 107q0 27 4 30h717v101q0 188 -221 303q-176 90 -340 90q-416 0 -539 -342q-8 -27 -57 -72q35 -16 49 -71q51 -178 211 -273q143 -80 342 -80q150 0 297 54q194 73 264 223zM772 475h-323v35q0 53 55 90 q45 31 104 31q61 0 112.5 -34t51.5 -93v-29zM551 858v240h-281v-240h281zM928 856v240h-281v-240h281z" />
<glyph unicode="&#xec;" horiz-adv-x="737" d="M700 0v168q-82 -6 -104 4q-37 14 -37 88q0 53 2 59q8 39 57 74q-59 41 -59 58v315h-518v-160q16 2 29 2h24q57 0 75.5 -22.5t18.5 -81.5q0 -47 -4 -60q-14 -31 -61 -51q66 -23 65 -123q0 -76 -36 -94q-27 -10 -111 -8v-168h659zM401 856l-71 324h-375l221 -324h225z" />
<glyph unicode="&#xed;" horiz-adv-x="737" d="M700 0v168q-82 -6 -104 4q-37 14 -37 88q0 53 2 59q8 39 57 74q-59 41 -59 58v315h-518v-160q16 2 29 2h24q57 0 75.5 -22.5t18.5 -81.5q0 -47 -4 -60q-14 -31 -61 -51q66 -23 65 -123q0 -76 -36 -94q-27 -10 -111 -8v-168h659zM338 856h225l223 324h-376z" />
<glyph unicode="&#xee;" horiz-adv-x="737" d="M700 0v168q-82 -6 -104 4q-37 14 -37 88q0 53 2 59q8 39 57 74q-59 41 -59 58v315h-518v-160q16 2 29 2h24q57 0 75.5 -22.5t18.5 -81.5q0 -47 -4 -60q-14 -31 -61 -51q66 -23 65 -123q0 -76 -36 -94q-27 -10 -111 -8v-168h659zM696 856l-202 324h-271l-203 -324h213 l127 180l123 -180h213z" />
<glyph unicode="&#xef;" horiz-adv-x="737" d="M700 0v168q-82 -6 -104 4q-37 14 -37 88q0 53 2 59q8 39 57 74q-59 41 -59 58v315h-518v-160q16 2 29 2h24q57 0 75.5 -22.5t18.5 -81.5q0 -47 -4 -60q-14 -31 -61 -51q66 -23 65 -123q0 -76 -36 -94q-27 -10 -111 -8v-168h659zM289 858v240h-281v-240h281zM666 856v240 h-281v-240h281z" />
<glyph unicode="&#xf1;" horiz-adv-x="1419" d="M1325 0v168q-111 2 -129 10q-27 14 -27 88q0 45 5 62q10 33 55 65q-6 2 -16.5 12.5t-19.5 20.5t-16.5 21.5t-7.5 17.5v137q0 104 -145 164q-106 41 -195 41q-180 0 -317 -125q-6 20 -6 41q0 20 6 43h-479v-160q55 2 88 -1t43 -7q31 -16 31 -98q0 -45 -5 -58 q-10 -25 -61 -49q53 -35 61 -65q4 -16 5 -58q0 -78 -27 -90q-10 -6 -135 -12v-168h610v168q-82 4 -92 10q-18 12 -19 82q0 49 5 62q10 39 55 71q-53 35 -53 78q0 25 12 46.5t32.5 38.5t46 26.5t50.5 9.5q119 0 119 -105q0 -45 -2 -51q-6 -25 -49 -43q66 -41 65 -127 q0 -47 -10 -67q-23 -41 -86 -31v-168h608zM944 975q-88 94 -121 133q-72 -55 -108 -55q-6 0 -15 4l-241 45q-168 -14 -199 -88l100 -166q53 37 119 59l252 -53q123 -4 213 121z" />
<glyph unicode="&#xf2;" horiz-adv-x="1277" d="M1241 393q-55 68 -70 99q-135 315 -544 315q-418 0 -551 -348q-10 -23 -56 -66q8 -6 19.5 -18.5t21 -26.5t17.5 -28.5t10 -24.5q47 -188 242 -270q135 -55 303 -56q430 0 565 377q12 35 43 47zM768 492q0 -61 -53 -93q2 -4 30 -37q14 -14 15 -63q0 -59 -38 -98t-97 -39 q-55 0 -93 34.5t-38 90.5q0 76 59 106q-66 43 -66 94q0 123 140 123q55 0 98 -32.5t43 -85.5zM651 856l-71 324h-377l223 -324h225z" />
<glyph unicode="&#xf3;" horiz-adv-x="1277" d="M1241 393q-55 68 -70 99q-135 315 -544 315q-418 0 -551 -348q-10 -23 -56 -66q8 -6 19.5 -18.5t21 -26.5t17.5 -28.5t10 -24.5q47 -188 242 -270q135 -55 303 -56q430 0 565 377q12 35 43 47zM768 492q0 -61 -53 -93q2 -4 30 -37q14 -14 15 -63q0 -59 -38 -98t-97 -39 q-55 0 -93 34.5t-38 90.5q0 76 59 106q-66 43 -66 94q0 123 140 123q55 0 98 -32.5t43 -85.5zM557 856h225l224 324h-377z" />
<glyph unicode="&#xf4;" horiz-adv-x="1277" d="M1241 393q-55 68 -70 99q-135 315 -544 315q-418 0 -551 -348q-10 -23 -56 -66q8 -6 19.5 -18.5t21 -26.5t17.5 -28.5t10 -24.5q47 -188 242 -270q135 -55 303 -56q430 0 565 377q12 35 43 47zM768 492q0 -61 -53 -93q2 -4 30 -37q14 -14 15 -63q0 -59 -38 -98t-97 -39 q-55 0 -93 34.5t-38 90.5q0 76 59 106q-66 43 -66 94q0 123 140 123q55 0 98 -32.5t43 -85.5zM942 856l-203 324h-270l-203 -324h213l127 180l123 -180h213z" />
<glyph unicode="&#xf5;" horiz-adv-x="1277" d="M1241 393q-55 68 -70 99q-135 315 -544 315q-418 0 -551 -348q-10 -23 -56 -66q8 -6 19.5 -18.5t21 -26.5t17.5 -28.5t10 -24.5q47 -188 242 -270q135 -55 303 -56q430 0 565 377q12 35 43 47zM768 492q0 -61 -53 -93q2 -4 30 -37q14 -14 15 -63q0 -59 -38 -98t-97 -39 q-55 0 -93 34.5t-38 90.5q0 76 59 106q-66 43 -66 94q0 123 140 123q55 0 98 -32.5t43 -85.5zM971 975q-88 94 -121 133q-72 -55 -109 -55q-6 0 -14 4l-242 45q-168 -14 -198 -88l100 -166q53 37 119 59l252 -53q123 -4 213 121z" />
<glyph unicode="&#xf6;" horiz-adv-x="1277" d="M1241 393q-55 68 -70 99q-135 315 -544 315q-418 0 -551 -348q-10 -23 -56 -66q8 -6 19.5 -18.5t21 -26.5t17.5 -28.5t10 -24.5q47 -188 242 -270q135 -55 303 -56q430 0 565 377q12 35 43 47zM768 492q0 -61 -53 -93q2 -4 30 -37q14 -14 15 -63q0 -59 -38 -98t-97 -39 q-55 0 -93 34.5t-38 90.5q0 76 59 106q-66 43 -66 94q0 123 140 123q55 0 98 -32.5t43 -85.5zM582 858v240h-281v-240h281zM958 856v240h-280v-240h280z" />
<glyph unicode="&#xf7;" horiz-adv-x="978" d="M662 645v244h-304v-244h304zM975 299v252h-922v-252h922zM662 -37v244h-304v-244h304z" />
<glyph unicode="&#xf8;" horiz-adv-x="1277" d="M1241 393q-55 68 -70 99q-135 315 -544 315q-418 0 -551 -348q-10 -23 -56 -66q8 -6 19.5 -18.5t21 -26.5t17.5 -28.5t10 -24.5q47 -188 242 -270q135 -55 303 -56q430 0 565 377q12 35 43 47zM768 492q0 -61 -53 -93q2 -4 30 -37q14 -14 15 -63q0 -59 -38 -98t-97 -39 q-55 0 -93 34.5t-38 90.5q0 76 59 106q-66 43 -66 94q0 123 140 123q55 0 98 -32.5t43 -85.5z" />
<glyph unicode="&#xf9;" horiz-adv-x="1300" d="M1280 2v160q-117 -4 -133 6q-29 16 -29 98q0 49 4 62q10 25 62 45q-66 47 -66 71v322h-454v-168q92 0 106 -14q10 -10 10 -76q0 -55 -6 -70q-8 -27 -53 -65q47 -25 53 -72v-78q-14 -18 -65 -33q-45 -14 -78 -14q-123 0 -123 103v47q10 25 51 51q-66 43 -65 88v301h-474 v-168q80 2 101 -20q16 -16 16 -78q0 -45 -4 -62q-10 -33 -55 -65q16 -8 37.5 -32t21.5 -40v-135q0 -106 150 -162q104 -35 194 -35q197 0 328 121q2 -10 3 -20.5t1 -20.5q0 -27 -6 -47h473zM651 856l-71 324h-377l223 -324h225z" />
<glyph unicode="&#xfa;" horiz-adv-x="1300" d="M1280 2v160q-117 -4 -133 6q-29 16 -29 98q0 49 4 62q10 25 62 45q-66 47 -66 71v322h-454v-168q92 0 106 -14q10 -10 10 -76q0 -55 -6 -70q-8 -27 -53 -65q47 -25 53 -72v-78q-14 -18 -65 -33q-45 -14 -78 -14q-123 0 -123 103v47q10 25 51 51q-66 43 -65 88v301h-474 v-168q80 2 101 -20q16 -16 16 -78q0 -45 -4 -62q-10 -33 -55 -65q16 -8 37.5 -32t21.5 -40v-135q0 -106 150 -162q104 -35 194 -35q197 0 328 121q2 -10 3 -20.5t1 -20.5q0 -27 -6 -47h473zM557 856h225l224 324h-377z" />
<glyph unicode="&#xfb;" horiz-adv-x="1300" d="M1280 2v160q-117 -4 -133 6q-29 16 -29 98q0 49 4 62q10 25 62 45q-66 47 -66 71v322h-454v-168q92 0 106 -14q10 -10 10 -76q0 -55 -6 -70q-8 -27 -53 -65q47 -25 53 -72v-78q-14 -18 -65 -33q-45 -14 -78 -14q-123 0 -123 103v47q10 25 51 51q-66 43 -65 88v301h-474 v-168q80 2 101 -20q16 -16 16 -78q0 -45 -4 -62q-10 -33 -55 -65q16 -8 37.5 -32t21.5 -40v-135q0 -106 150 -162q104 -35 194 -35q197 0 328 121q2 -10 3 -20.5t1 -20.5q0 -27 -6 -47h473zM928 856l-203 324h-270l-203 -324h213l127 180l123 -180h213z" />
<glyph unicode="&#xfc;" horiz-adv-x="1300" d="M1280 2v160q-117 -4 -133 6q-29 16 -29 98q0 49 4 62q10 25 62 45q-66 47 -66 71v322h-454v-168q92 0 106 -14q10 -10 10 -76q0 -55 -6 -70q-8 -27 -53 -65q47 -25 53 -72v-78q-14 -18 -65 -33q-45 -14 -78 -14q-123 0 -123 103v47q10 25 51 51q-66 43 -65 88v301h-474 v-168q80 2 101 -20q16 -16 16 -78q0 -45 -4 -62q-10 -33 -55 -65q16 -8 37.5 -32t21.5 -40v-135q0 -106 150 -162q104 -35 194 -35q197 0 328 121q2 -10 3 -20.5t1 -20.5q0 -27 -6 -47h473zM532 858v240h-280v-240h280zM909 856v240h-280v-240h280z" />
<glyph unicode="&#xfd;" horiz-adv-x="1478" d="M1214 438q-94 -20 -219 -217l-135 -212l-84 -136q-96 -152 -196 -203q-59 -33 -181 -32q-80 0 -190 40v220q4 -4 82 -17q35 -4 59.5 -6t34.5 -4q76 -4 145 82l-184 276q-115 168 -203 183q33 31 33 65q0 53 -45 88t-100 35q-16 0 -23 -2v168h668v-166q-2 -2 -51 0 q-31 4 -47 -18q0 -23 11 -44.5t30.5 -39t43 -27.5t48.5 -10q-23 -45 -23 -62q0 -39 64 -100q63 76 63 121q0 23 -16 39q57 8 77.5 35.5t20.5 87.5q-23 20 -55 18q-59 -4 -62 0v166h635v-168q-25 10 -49 10q-43 0 -90 -20q-88 -33 -88 -90q-1 -31 26 -60zM612 856h226 l223 324h-377z" />
<glyph unicode="&#xff;" horiz-adv-x="1478" d="M1214 438q-94 -20 -219 -217l-135 -212l-84 -136q-96 -152 -196 -203q-59 -33 -181 -32q-80 0 -190 40v220q4 -4 82 -17q35 -4 59.5 -6t34.5 -4q76 -4 145 82l-184 276q-115 168 -203 183q33 31 33 65q0 53 -45 88t-100 35q-16 0 -23 -2v168h668v-166q-2 -2 -51 0 q-31 4 -47 -18q0 -23 11 -44.5t30.5 -39t43 -27.5t48.5 -10q-23 -45 -23 -62q0 -39 64 -100q63 76 63 121q0 23 -16 39q57 8 77.5 35.5t20.5 87.5q-23 20 -55 18q-59 -4 -62 0v166h635v-168q-25 10 -49 10q-43 0 -90 -20q-88 -33 -88 -90q-1 -31 26 -60zM678 858v240h-281 v-240h281zM1055 856v240h-281v-240h281z" />
<glyph unicode="&#x152;" horiz-adv-x="1978" d="M969 367q0 -205 -193 -205q-94 0 -149.5 58.5t-55.5 152.5q0 49 22.5 101t63.5 69q-57 45 -71 82q-8 18 -8 73q0 193 190 193q195 0 195 -186q0 -106 -78 -162q84 -35 84 -176zM1862 645v420h-838q-113 33 -266 33q-426 0 -580 -248q-14 -20 -55 -162q-31 -102 -100 -145 q29 -16 45 -28.5t20 -18.5q33 -49 39 -97q20 -158 154 -282q137 -125 294 -133l161 -11.5t32 -3.5q154 0 274 31h813v416h-296q2 -25 2 -41v-19q0 -182 -111 -182h-205v250h240v203h-240v258h139q33 0 89 -23q72 -31 71 -74v-143h318z" />
<glyph unicode="&#x153;" horiz-adv-x="1851" d="M756 492q0 -61 -54 -93q2 -4 31 -37q14 -14 15 -63q0 -59 -38 -98t-98 -39q-55 0 -93 34.5t-38 90.5q0 76 60 106q-66 43 -66 94q0 123 139 123q55 0 98.5 -32.5t43.5 -85.5zM1759 246h-413q-23 -102 -146 -103q-72 0 -117 33q-51 39 -51 107q0 27 4 30h717v101 q0 188 -221 303q-176 90 -340 90q-102 0 -166 -25q-45 -14 -125 -69q-80 53 -123 69q-61 25 -164 25q-418 0 -551 -348q-10 -23 -55 -66q8 -6 19.5 -18.5t20.5 -26.5l17.5 -28.5t10.5 -24.5q47 -188 241 -270q135 -55 304 -56q98 0 157 25q41 14 121 69l6 -2q41 -29 75 -45 t56 -24q68 -23 162 -23q150 0 297 54q194 73 264 223zM1362 475h-324v35q0 53 56 90q45 31 104 31q61 0 112.5 -34t51.5 -93v-29z" />
<glyph unicode="&#x178;" horiz-adv-x="1615" d="M1546 891v174h-655v-174h59q33 -6 51 -31q2 -39 -159 -242q-139 186 -140 230q0 31 48 41q31 6 49 2v174h-791v-174q31 10 53 10q86 0 183 -96q121 -121 121 -236q0 -10 -1.5 -17t-3.5 -15q72 -25 82 -31q10 -8 26.5 -25.5t39.5 -44.5q45 -51 45 -69v-148 q0 -10 -22.5 -26.5t-34.5 -18.5h-138v-174h830v174h-137q-63 0 -64 115q0 84 55 157q57 76 140 68q-12 27 -13 57q0 80 91 187q123 141 241 141q27 0 45 -8zM793 1149v240h-281v-240h281zM1169 1147v239h-280v-239h280z" />
<glyph unicode="&#x2c6;" horiz-adv-x="1275" d="M942 856l-203 324h-270l-203 -324h213l127 180l123 -180h213z" />
<glyph unicode="&#x2dc;" horiz-adv-x="1275" d="M944 975q-88 94 -121 133q-72 -55 -108 -55q-6 0 -15 4l-241 45q-168 -14 -199 -88l100 -166q53 37 119 59l252 -53q123 -4 213 121z" />
<glyph unicode="&#x2000;" horiz-adv-x="819" />
<glyph unicode="&#x2001;" horiz-adv-x="1638" />
<glyph unicode="&#x2002;" horiz-adv-x="819" />
<glyph unicode="&#x2003;" horiz-adv-x="1638" />
<glyph unicode="&#x2004;" horiz-adv-x="544" />
<glyph unicode="&#x2005;" horiz-adv-x="409" />
<glyph unicode="&#x2006;" horiz-adv-x="272" />
<glyph unicode="&#x2007;" horiz-adv-x="272" />
<glyph unicode="&#x2008;" horiz-adv-x="204" />
<glyph unicode="&#x2009;" horiz-adv-x="327" />
<glyph unicode="&#x200a;" horiz-adv-x="90" />
<glyph unicode="&#x2010;" horiz-adv-x="665" d="M623 229v283h-557v-283h557z" />
<glyph unicode="&#x2011;" horiz-adv-x="665" d="M623 229v283h-557v-283h557z" />
<glyph unicode="&#x2012;" horiz-adv-x="665" d="M623 229v283h-557v-283h557z" />
<glyph unicode="&#x2013;" horiz-adv-x="921" d="M0 358h922v277h-922v-277z" />
<glyph unicode="&#x2014;" horiz-adv-x="1843" d="M0 358h1843v277h-1843v-277z" />
<glyph unicode="&#x2018;" horiz-adv-x="489" d="M377 565v279h-178q-16 4 -64 -51l-6 30q10 43 59 92q10 10 32 30l52 46l-41 74q-86 -35 -139 -116t-53 -175q0 -51 27 -117q37 -92 100 -92h211z" />
<glyph unicode="&#x2019;" horiz-adv-x="512" d="M377 862q0 55 -31 121q-39 82 -102 82h-211v-279h164q35 0 79 52q2 -2 3 -15q0 -49 -50 -104q-41 -51 -92 -72l41 -82q199 80 199 297z" />
<glyph unicode="&#x201a;" horiz-adv-x="518" d="M377 68q0 57 -31 122q-39 82 -102 82h-211v-276h164q33 0 79 49q2 -2 3 -14q0 -45 -48 -99q-45 -51 -94 -69l41 -82q199 94 199 287z" />
<glyph unicode="&#x201c;" horiz-adv-x="899" d="M786 559v279h-178q-12 0 -34.5 -19.5t-30.5 -32.5q-8 6 -4 11q-6 43 47 108q47 55 96 72l-41 82q-193 -94 -192 -291q0 -55 26 -117q37 -92 100 -92h211zM377 559v279h-178q-16 4 -64 -52l-6 29q10 41 57 92q10 10 32 30l54 48l-41 74q-86 -35 -139 -116t-53 -175 q0 -55 27 -117q37 -92 100 -92h211z" />
<glyph unicode="&#x201d;" horiz-adv-x="929" d="M793 854q0 55 -29 119q-41 86 -105 86h-210v-279h165q35 0 78 51q4 -4 4 -14q0 -47 -47 -100q-45 -49 -96 -70l41 -82q199 94 199 289zM383 854q0 51 -29 119q-41 86 -104 86h-217v-279h172q27 0 78 51q4 -4 4 -14q0 -25 -13.5 -51.5t-34 -49t-46 -41t-50.5 -26.5 q12 -29 22.5 -49l18.5 -35q199 94 199 289z" />
<glyph unicode="&#x201e;" horiz-adv-x="929" d="M793 66q0 55 -29 118q-41 86 -105 86h-210v-276h165q35 0 78 49q4 -4 4 -14q0 -45 -47 -99q-45 -49 -96 -69l41 -82q199 94 199 287zM383 66q0 51 -29 118q-41 86 -104 86h-217v-276h172q25 0 78 49q4 -4 4 -14q0 -45 -47 -98.5t-97 -67.5q12 -29 22.5 -49.5t18.5 -34.5 q199 94 199 287z" />
<glyph unicode="&#x2022;" horiz-adv-x="821" d="M715 592q0 127 -88 215q-90 90 -213 90q-125 0 -215 -90q-88 -88 -88 -215q0 -121 90 -211q88 -88 213 -88q123 0 211 88q90 90 90 211z" />
<glyph unicode="&#x2026;" horiz-adv-x="1542" d="M1403 -4v276h-336v-276h336zM909 -4v276h-336v-276h336zM422 -4v276h-336v-276h336z" />
<glyph unicode="&#x202f;" horiz-adv-x="327" />
<glyph unicode="&#x2039;" horiz-adv-x="675" d="M250 797l-217 -400l217 -397h368l-165 397l165 400h-368z" />
<glyph unicode="&#x203a;" horiz-adv-x="675" d="M401 797l217 -400l-217 -397h-368l166 397l-166 400h368z" />
<glyph unicode="&#x205f;" horiz-adv-x="409" />
<glyph unicode="&#x2122;" horiz-adv-x="1781" d="M1542 983v84h-344q-23 -100 -41 -171t-31 -112q-6 6 -4 7q-10 55 -24 123l-31 155h-346v-86q59 4 70 -16q4 -12 4 -62q0 -45 -2 -49q-6 -29 -37 -47q39 -20 39 -102q0 -51 -4 -64q-14 -27 -70 -18v-88h237v88q-55 -4 -55 26v260l113 -374h129l119 360v-248q0 -29 -56 -24 v-88h334v88q-61 -10 -74 18q-4 12 -4 64v55q6 29 39 47q-39 20 -39 94q0 49 4 62q13 20 74 18zM647 850v215h-612v-215h153v100q4 23 39 23q12 0 15 -2v-121q0 -14 -39 -47q31 -14 37 -41q2 -6 2 -60q0 -63 -6 -69q-12 -14 -89 -15v-86h388v86q-74 -6 -91 19q-4 12 -4 65v56 q8 39 41 45q-41 25 -41 45v127h23q29 0 29 -33v-92h155z" />
<glyph unicode="&#xe000;" horiz-adv-x="765" d="M0 765h765v-765h-765v765z" />
<glyph unicode="&#xfb01;" horiz-adv-x="1597" d="M1378 858v240h-393v-240h393zM1560 0v168q-31 -2 -53 -2q-37 0 -51 6q-37 14 -37 88q0 53 2 59q8 39 57 74q-59 41 -59 58v315h-518v-160q16 2 29 2h24q57 0 75.5 -22.5t18.5 -81.5q0 -47 -4 -60q-14 -31 -61 -51q66 -23 65 -123q0 -76 -36 -94q-22 -9 -85 -8h-26v-168 h659zM760 897v219h-154q-217 0 -305 -51q-126 -72 -126 -267q0 -15 1 -30h-149v-170h155v-152q0 -18 -59 -53q47 -41 55 -65q4 -16 4 -56q0 -74 -41 -96q-24 -9 -87 -8h-27v-168h712v168h-137q-49 0 -49 96q0 45 4 58q8 33 53 71q-6 4 -16 12.5t-19.5 17.5t-15.5 18.5 t-6 15.5v141h180v170h-180v55q0 16 11 29.5t28.5 24t38 15.5t39.5 5h90z" />
<glyph unicode="&#xfb02;" horiz-adv-x="1613" d="M1528 0v168q-72 2 -88 12q-20 14 -21 80q0 25 1 40t3 24q12 43 62 69q-66 35 -66 58v614h-532v-168h88q74 -10 73 -49v-389q0 -14 -24.5 -36t-40.5 -30q49 -35 61 -67q4 -16 4 -56q0 -78 -30 -92q-6 -2 -39 -4t-92 -6v-168h641zM760 897v219h-154q-217 0 -305 -51 q-126 -72 -126 -267q0 -15 1 -30h-149v-170h155v-152q0 -18 -59 -53q47 -41 55 -65q4 -16 4 -56q0 -74 -41 -96q-24 -9 -87 -8h-27v-168h712v168h-137q-49 0 -49 96q0 45 4 58q8 33 53 71q-6 4 -16 12.5t-19.5 17.5t-15.5 18.5t-6 15.5v141h180v170h-180v55q0 16 11 29.5 t28.5 24t38 15.5t39.5 5h90z" />
<glyph unicode="&#xfb03;" horiz-adv-x="2457" d="M2238 858v240h-393v-240h393zM2420 0v168q-31 -2 -53 -2q-37 0 -51 6q-37 14 -37 88q0 53 2 59q8 39 57 74q-59 41 -59 58v315h-518v-160q16 2 29 2h24q57 0 75.5 -22.5t18.5 -81.5q0 -47 -4 -60q-14 -31 -61 -51q66 -23 65 -123q0 -76 -36 -94q-22 -9 -85 -8h-26v-168 h659zM1620 897v219h-154q-217 0 -305 -51q-126 -72 -126 -267q0 -15 1 -30h-149v-170h155v-152q0 -18 -59 -53q47 -41 55 -65q4 -16 4 -56q0 -74 -41 -96q-24 -9 -87 -8h-27v-168h712v168h-137q-49 0 -49 96q0 45 4 58q8 33 53 71q-6 4 -16 12.5t-19.5 17.5t-15.5 18.5 t-6 15.5v141h180v170h-180v55q0 16 11 29.5t28.5 24t38 15.5t39.5 5h90zM760 897v219h-154q-217 0 -305 -51q-126 -72 -126 -267q0 -15 1 -30h-149v-170h155v-152q0 -18 -59 -53q47 -41 55 -65q4 -16 4 -56q0 -74 -41 -96q-24 -9 -87 -8h-27v-168h712v168h-137q-49 0 -49 96 q0 45 4 58q8 33 53 71q-6 4 -16 12.5t-19.5 17.5t-15.5 18.5t-6 15.5v141h180v170h-180v55q0 16 11 29.5t28.5 24t38 15.5t39.5 5h90z" />
<glyph unicode="&#xfb04;" horiz-adv-x="2473" d="M2388 0v168q-72 2 -88 12q-20 14 -21 80q0 25 1 40t3 24q12 43 62 69q-66 35 -66 58v614h-532v-168h88q74 -10 73 -49v-389q0 -14 -24.5 -36t-40.5 -30q49 -35 61 -67q4 -16 4 -56q0 -78 -30 -92q-6 -2 -39 -4t-92 -6v-168h641zM1620 897v219h-154q-217 0 -305 -51 q-126 -72 -126 -267q0 -15 1 -30h-149v-170h155v-152q0 -18 -59 -53q47 -41 55 -65q4 -16 4 -56q0 -74 -41 -96q-24 -9 -87 -8h-27v-168h712v168h-137q-49 0 -49 96q0 45 4 58q8 33 53 71q-6 4 -16 12.5t-19.5 17.5t-15.5 18.5t-6 15.5v141h180v170h-180v55q0 16 11 29.5 t28.5 24t38 15.5t39.5 5h90zM760 897v219h-154q-217 0 -305 -51q-126 -72 -126 -267q0 -15 1 -30h-149v-170h155v-152q0 -18 -59 -53q47 -41 55 -65q4 -16 4 -56q0 -74 -41 -96q-24 -9 -87 -8h-27v-168h712v168h-137q-49 0 -49 96q0 45 4 58q8 33 53 71q-6 4 -16 12.5 t-19.5 17.5t-15.5 18.5t-6 15.5v141h180v170h-180v55q0 16 11 29.5t28.5 24t38 15.5t39.5 5h90z" />
</font>
</defs>
</svg>
